<?xml version="1.0"?>
    
<!--********* Copyright (c) 2024 Pareto Softare, LLC DBA Simplemaps.com ***************************************
************* Free for Commercial Use, full terms at  https://simplemaps.com/resources/svg-license ************
************* Attribution is appreciated! https://simplemaps.com *******************************************-->

<svg baseprofile="tiny" fill="#6f9c76" height="812" stroke="#ffffff" stroke-linecap="round" stroke-linejoin="round" stroke-width=".5" version="1.2" viewbox="0 0 1000 812" width="1000" xmlns="http://www.w3.org/2000/svg">
 <g id="features">
  <path d="M155.3 89.1l0.6-0.2 5.8-0.1 4.9 0.8 2.6-1.3 2.8-0.6 2.3 1.9 2.3 2.2 4.7 2.8 5.1 1.9 2.8 0.7 2.6 1 2.5 1.7 2.8 1.3 2.8 0.3 2.4-1.4 1.1-2.1 1.5-1.8 1.9-0.7 1.3 1.7-0.2 2.4-1.1 2.3-0.3 1.4 0 1.5-0.3 1.2-0.4 1.1-0.9 2.9-0.4 3.1 2.5 4.4 1.7 4.9-0.6 5.6-0.8 2.9-0.3 2.9 2.3 12.5-0.3 5.8-3.4 1.8-5.2-1.7-5.4 1.4-2.7 4.8 0.5 29.8-2.6 12.1-3.3 7.2-0.7 7.4 2.5 2.8 3.4 1.1 3.3-2.1 2.6-3.3 14.4-6.5 1.6-0.4 1.6 0.4 1.2 0.7 0.9-0.3 0.9-0.3 1.1 0.7 0.8 1.2 1.7-0.1 1.5-1 3.1-0.6 3.1 1.2 1.2 1.1 1.6 0.3 4-1 1.7-0.1 1.4-0.8 0.6-1.8 1.3-1.3 1.7-0.1 1.6 0.7 1.8 0.1 4.3-0.6 1.8 1.5 1.1 2.2 6.6 2.9 4.5 1 11.5-0.8 1.2-0.7 1.3-0.3 5.6 0.9 2.8 1 3.6 3.5-0.4 5.3-1.9 5.8 1.5 2.4 2.9 1.1 5.8 9.3 0.7 11.8-2.3-1.5-2.7 0.1-1.1 0.9-1.9 2.2-0.8 1.2-1.9 1.6-2.7 0.2-2.6 0.7-13.1 5.6-5 0.9-7.6 0-2-0.7-1-2.7-0.1-3 0.5-6-1.3-2.6-2.4-1.5-2.7-4.9-1-5.8-4.5-2.7-5.5-0.2-22.4 4.6-10.4 4.7-1.2 4.9 4.8 3.6 5.4 2.3 5.8 0.9 1.3 0 1 0.6 0.6 1.4 1 0.6 2.1 0.6 0.9 2.2 0.7 3.2 0.2 3.1-3.6 4.6 3.1 3.9 1.7 5.1-2.1 1.6-5.3 1.5-5.1 2.5-5.3-0.7-2.4 0.8-1.3 5.1 0.4 5.8-0.3 2.7 0.4 2.6 3.6 4.7 2.3 5.2-1.9 5-2.2 1.7-2.6 0.8-8.7 1.9-2.7 0.9-0.8 2.7 0 3-1 2.1-5.2-0.3-1.8-1.6 1.2-5.7 0.4-5.6-1.6-1.8-1.9-1.5-1.2-2.6-0.3-3 0.5-5.7 2.8-4.9 8.8-5 0.2-1.4 1.9-1.9 0.5-1.1 0.2-1.3 0-2.9 2.5-13.8-0.1-1.9-4.9-1.5-9.2-6-7.7-2.1-7.8 1.2-20.8 0.5-4-0.4-8.4-4-6.8-4.2-6.9-0.8-0.6 0.6-0.1 0-0.7 0.1-0.6-0.1-1.8-1.7-13.6-19.3-1.1-2.1-0.2-1.8 1.6-4.1 0.4-1.2 0.9-3.5 5.3-9 1.7-1.8 3.9-2.3 0.9-0.9 0.5-1.7-0.4-1.5-0.9-1.5-1.8-1.9-0.3-0.2-0.3-0.2-0.4-0.8-0.2-0.8-0.5-4.4 0.4-1.3 0.8-1.1 1.3-1.3 1.3-2.6-0.4-2.6-1.8-5.7 0-3.4 2-10.2-0.7-19.3 0.3-0.8 16.6-12.5 4.9-4.7 12.1-19.1 2.4-16.7z" id="NGKE" name="Kebbi">
  </path>
  <path d="M123.8 251.1l0.6-0.6 6.9 0.8 6.8 4.2 8.4 4 4 0.4 20.8-0.5 7.8-1.2 7.7 2.1 9.2 6 4.9 1.5 0.1 1.9-2.5 13.8 0 2.9-0.2 1.3-0.5 1.1-1.9 1.9-0.2 1.4-8.8 5-2.8 4.9-0.5 5.7 0.3 3 1.2 2.6 1.9 1.5 1.6 1.8-0.4 5.6-1.2 5.7 1.8 1.6 5.2 0.3 1-2.1 0-3 0.8-2.7 2.7-0.9 8.7-1.9 2.6-0.8 2.2-1.7 1.9-5-2.3-5.2-3.6-4.7-0.4-2.6 0.3-2.7-0.4-5.8 1.3-5.1 2.4-0.8 5.3 0.7 5.1-2.5 5.3-1.5 2.1-1.6-1.7-5.1-3.1-3.9 3.6-4.6-0.2-3.1-0.7-3.2-0.9-2.2-2.1-0.6-1-0.6-0.6-1.4-1-0.6-1.3 0-5.8-0.9-5.4-2.3-4.8-3.6 1.2-4.9 10.4-4.7 22.4-4.6 5.5 0.2 4.5 2.7 1 5.8 2.7 4.9 2.4 1.5 1.3 2.6-0.5 6 0.1 3 1 2.7 2 0.7 7.6 0 5-0.9 13.1-5.6 2.6-0.7 2.7-0.2 1.9-1.6 0.8-1.2 1.9-2.2 1.1-0.9 2.7-0.1 2.3 1.5 3.3 4.3 5.8 9.8 1.1 5.1-1.5 0.7-1.5 1.7-0.6 2-0.5 6.4 0.1 2 1.3 3.8 0.1 0.9-0.1 1-0.3 1.7-1.1 2.6-0.2 0.9 0 2.1-0.1 1-0.5 1-0.3 1.5 0.5 2.6 2.5 1.8 1.8 2.4 1.3 2.6 2.6-0.4 2-2.2 1.6-2.6 4-4.3 9-6.9 5.4-1.2 2 1.4 0.9 2.4 2.4 0.4 5.5-2.6 2.9-0.5 2.9 0.5 1.7-1.3-0.3-3 2.5-1.1 2.7 0.2 2.3 1 0.7 1.5 0.5 6.2 1.2 0.3 2.6-0.7 4.2 3.5 0.1 6.2-1 2.7 1.7 1.7 5.4 2 2.2 1.6-0.1 2.6-1.9 2.4-2.5 1.7-2.4 1.9-2.1 2.5-2.4 1.6-1.8 2.2 3.3 4.4 5.5 2.3 5.6 0.7 11.2-0.2 3.7 2.6 1.4 12.3-0.1 2.8-2 1.6-2.3 0.2-1.7 1.3 1.5 2 2.8 0.8 1.6 1.4-0.6 2.1 1.1 2 2.3 1.1 0.4 2.4-1.7 2-1.1 1-0.8 1.2-0.2 1.6-0.4 1.5-4.2 3-0.6 2.8 1.5 2.4 1 0.6 1.3 1.7-0.2 1.1-0.8 2.3 0.5 1.2 1.9-0.6 1.8 0.5-10.7 15.2-0.4 0.1-3.6-2-7.1-6.9-4.6-1.5-14 0.6-1.8 0.9-0.3 2.1 0.7 54.7 0.4 1.4 1.9 3.2 3.4 0.4-1 3.1-2.2 2.1-1.6 0.6-1.2 1.2 0.2 1.7-0.4 1.2-1-0.6-1 0.8-0.8 1.9-0.5 2-1.3 1.3-0.3-0.5-1.1-0.9 0-0.5-1-0.4-2.8-3.1-3-4.8-0.9-1-7.5-5.7-0.6-0.3-1.7-3.5-1-3.7-0.2-2.2-0.1-0.7-0.3-0.7-0.4-0.1-0.2-0.6-1.2-2.4-0.1-0.6-0.1-1.4-1.9-3.2-0.9-1-1.2-0.6-1.6-0.3-2.8-1.9-0.5-0.4-1.3-0.2-3.4 0.7-4.2 0.8-0.5-0.2-2.3-2.2-1.2-0.4-1.1-0.2-8.3 0.1-1.9 0.3-2.4 1.2-0.9 0.2-1.1-0.1-3.4-0.5-4 0.1-0.9-0.3-0.5-0.5-0.8-1.4-1.1-1.5-1-1.6-0.6-0.1-1.7-0.7-0.6-0.1-4.3-0.1-1.2-0.4-1-0.8-0.3-0.4-0.7-1.3-0.6-0.8-0.7-0.8-1.6-1.4-1-1.3-0.4-0.3-1-0.6-1.1-0.4-1-0.2-2.4-0.1-1-0.2-0.9-0.5-0.9-0.7-1.4-1.4-0.8-0.6-0.9-0.5-1.1-0.2-5.1 0.3-7.2-1.2-1.1-0.4-0.9-0.6-0.6-1-0.1-0.9 0.1-0.8-0.1-0.8-0.3-0.8-1.3-1.4-1.3-1.7-1.1-0.8-4-1.9-2.5-1.8-1.4-0.6-0.1-0.4-1.8-0.9-1-0.2-1.1 0-4.9 1.5-3.4 2-3 0.9-2.4 0.1-2.1-0.6-1.3-1.5-0.2-2.3 0.4-2.3-0.1-2.1-0.9-1.5-2.1-0.8-3.8-0.7-1.2-0.4-1.2-0.9-0.6-1-0.3-1.3 0-1.5 0 0.1-0.1 0.1-0.1 0-0.1 0 0.1-1.5-0.2-2.9-0.1-0.5-6.6-1-5.6 0.7-2.5-4.3 0.1-5.7 0.8-6.2-1.3-5.1-2.6-0.1-1.2-0.7-1.1-0.9-25.5-30.2-2.1-1.8-5.2-0.7-12.1 0.3-6.7 1.3-0.4 0.1 0.2-1.4-0.2-1.2-0.7-1-5.1-5.3-1.1-1.8-0.1-1.4 1.6-3.5 1.9-3 0.3-0.9 0.1-1.5 0.2-0.5 0.5-0.7 1.5-1.5 1.5-0.5 1.6 0.3 4.8 2.6 1.2-0.2 1.2-1.5 0.5-1.4 0-4 0.7-2 2-3.9 0.5-2 0-2.4 0-1.9-0.4-2.2-0.7-1.5-0.9-0.6-1.1-0.2-1-0.3-0.7-0.8-0.7-2.5-0.4-0.9-0.6-0.6-0.6-0.6-0.6-0.6-0.4-1 0.1-1.3 1.6-4.1 0.1-2.2-1.5-6.9-0.8-1.3-0.6-1.5-0.3-1.5 0-1.7 0.8-3-0.7-0.6-0.6 0z" id="NGNI" name="Niger">
  </path>
  <path d="M120.7 327.6l0.4-0.1 6.7-1.3 12.1-0.3 5.2 0.7 2.1 1.8 25.5 30.2 1.1 0.9 1.2 0.7 2.6 0.1 1.3 5.1-0.8 6.2-0.1 5.7 2.5 4.3 5.6-0.7 6.6 1 0.1 0.5 0.2 2.9-0.1 1.5 0.1 0 0.1 0 0.1-0.1 0-0.1 0 1.5 0.3 1.3 0.6 1 1.2 0.9 1.2 0.4 3.8 0.7 2.1 0.8 0.9 1.5 0.1 2.1-0.4 2.3 0.2 2.3 1.3 1.5 2.1 0.6 2.4-0.1 3-0.9 3.4-2 4.9-1.5 1.1 0 1 0.2 1.8 0.9 0.1 0.4 1.4 0.6 2.5 1.8 4 1.9 1.1 0.8 1.3 1.7 1.3 1.4 0.3 0.8 0.1 0.8-0.1 0.8 0.1 0.9 0.6 1 0.9 0.6 1.1 0.4 7.2 1.2 5.1-0.3 1.1 0.2 0.9 0.5 0.8 0.6 1.4 1.4 0.9 0.7 0.9 0.5 1 0.2 2.4 0.1 1 0.2 1.1 0.4 1 0.6 0.4 0.3 1 1.3 1.6 1.4 0.7 0.8 0.6 0.8 0.7 1.3 0.3 0.4 1 0.8 1.2 0.4 4.3 0.1 0.6 0.1 1.7 0.7 0.6 0.1 1 1.6 1.1 1.5 0.8 1.4 0.5 0.5 0.9 0.3 4-0.1 3.4 0.5 1.1 0.1 0.9-0.2 2.4-1.2 1.9-0.3 8.3-0.1 1.1 0.2 1.2 0.4 2.3 2.2 0.5 0.2 4.2-0.8-3.2 4.1-3.1 10.7-1.2 7.9-0.7 2.2-1.6 1.9-2.5 0.5-8.3-1.9-10.5-0.5-7.5-1.8-7.6-2.9-3.8-3.7-3-1.2-3.4 3.1-8.7 10.8-0.5 2.5 2.2 4.4 1.1 1.3 1.4 1.2 0.7 1.4 3.1 2.8 5.1 3.2 0.5 4.6-8.1 0.2-2.7 0.9-1.6 1.9-0.5 2.5-0.9 1.8-0.7 0.2-0.6-0.2-3.2 0.5-1.9-0.4-3-0.2-5-3.2-4.7 1.4-1.6-0.6-0.4-1.3-0.8-0.6-1.2-0.2-4.3 0.6-2.3-1.5-1.6-2.7-3.1 0-3 1.2-4.3 0.4-0.5 0.6-0.1-0.6-2.1 0.5-2 0.8-4.2 0.9-5-0.5-4.9 0.3-1.2-0.8-1.3-0.3-0.9-1.5-2.2-7.3-2.8-4.4-2-1.3-1.7-1.6-2.7-4-2.6-10.3-2.7-4-6.7-15-1-4.7 0.9-4.6 1.7-1.6 1.2-2 1.9-1.9 2.5-1.5 2.6-3.7-1.3-3-3.7 2.3-2.1 0.1-5.5-1.3-9-3.2-3.4-1.8-2.9-2.5-1.7-3.4-2.2-2.8-3.4-1.5-3.7 0.3-3.4 2.5-1.9 3.7-0.7 5-1.5 1.6-1.7 1.3-15.6 7.9-3.3 2.5-3 1.5-3.4 2.6-9 4-0.9 0.2-0.8-0.9-0.9-0.5-0.7-0.8-1.2-0.3-1.2 0.2-1.7 0.5-1.7 1-3.1 2.7-1.5 0.9-1.2 1-0.5 0.8-1.8 0.6-4.1 3.4-1.4 1.7-1.8 1.3-6 1.4-1.5-0.2-1.5 0-3.9 3.5-0.5 0.4-1.5-18.7 0-0.1 0-0.8 0.4-0.6 1.3-0.5 0.4-0.4 0.1-0.7-0.4-1.2-0.1-0.7 0.3-1.2 1-2.2 0-1.1-0.3-0.6-0.4-0.1-0.3-0.2-0.1-0.6 0.2-0.1 0.8-1.3 0.2-0.5 0.5-2.1 0.1-4.9-0.2-2 5.8 0.5 1-0.2 0.8-0.5 0.6-0.7 0.8-0.5 0.8-0.2 2.4 0 0.8 0.1 0.8 0.4 0.8 0.5 0.7 0.3 0.9 0 5.2-1.3 1.8-1.3 1.2-2.4 2.5-7.9 1.6-3 0.4-1.6 0.1-5-0.3-1.2-1-2.5-0.5-2.1 0.3-2.1 1.5-2.4 0.5-0.4 1.2-0.4 0.6-0.5 4.6-6.1 0.1-0.4-0.4-1-0.1-0.5 0.6-1.9 1.2-0.4 1.5 0.3 1.3 0.1 2.5-1.4 0.5-2-0.6-2.3-0.9-2.4-0.3-1.5 0.2-1.8 0.7-1.5 1.2-0.9 5.4-2.3 3-0.7 4.5 0.5 1.4-1.3 2-3.7 2.4-2.9 0.8-1.5 0.5-6.6 0.5-1.3 1.1-1.1 1.1-0.5 1-0.7 0.7-1.7 0-0.4z" id="NGKW" name="Kwara">
  </path>
  <path d="M45.5 499l0.5-0.3 6.6-4.6 7.3 0.2 1.9 3.6 0.4 8.6 1.3 4.1 2.1 0.4 0.8-4 1.1-3.3 2.8-0.1 0.5 6.8-2.8 7.7 0.1 1.6 1.5 4 3.1 2.6 2.5 3.2 3.4 6.2 5.4 4.9 4.1 1.4 4.3-0.2 3-2.6 3.1-7.6 3.1-2.1 2.8 2.1 1.3 3.7 2.2 1.3 2.2-1.2 2.3-1 7.5 0.2 2.6 3.7 0 4.2 0.2 1.4 2.2 1.6 2.2 1.2 0.5 1.3 0 1.5 0.2 1.2 0.5 1.1 0.9 4.5-2.8 3.9-2.1 3.5 4.6 0.2 9.3-1.2 4.7-1.2 2.1-1.4 2.4-0.8 2.3-0.2 2.3-0.4 5.3-2.6 1.6 3.3 0.6 3.4 3.1-0.4 2.9-1.8 3.5-0.1 2.5 2.1 0.9 1.9 0.7 1.9 0.2 1.3 0.4 1.1 2.2 0.1 2.6-1.5 1.6 0.5 1.7 0.1 1.2-0.6 1.4-0.4 3.1-0.3 1.2 1.5-1.8 10-1.4 1.9-6.8 5-3.8 4-1.8 5.1-0.1 2.3 1.1 2 1.1 0.7 2.4 0.8 1.2 0.2 3.9 0.1 3.3-2 1.2-1.8 1.9-0.9 1.4 2 0 5.4 0.7 3.6-0.2 1-0.8 1-1.2 0.4-3.9 2.8-2.5 0.3-1.2 0.5 1.3 1.5 2.3 0 4.2 1.8 0.1 2.1-1.2 1.4-4.5-0.4-0.1 0.1-6.6-2.9-4.9-0.9 0.1-0.2 0.3-2.1-0.1-2-2.1-0.7-4.3-0.2-1.8 0.4-1.3-0.8-1-0.9-2.2-0.6-1.7-1.1-0.1-1.9 4.3-2.4 0.7-1.6-0.8-1.6-2.1-0.8-2.5 0.6-2.3 1.5-2.3 1.2-2.2-1.8 0-0.9-0.8-1.9 0.6-1.9 1.9-1.4 0.8-2-4.5-1.2-44.3 0.2-0.6 0.7-0.3 1.1-0.9 1.3-1.5 0.2-2.7-0.1-1.7-2.2-3.5-1.8-1.8-0.6-2.3 1-0.5 1.1-1.1 3.9-1.2 1.2-1.1 1.6-0.8 3.7-1.1 1.3-4.5 0.6-16.5-0.7-0.8 0.4 0 1.1-1.4 1.6-2.1 1.4-1.9 0.1-1.9-0.7-2.6 0.3-2.5-0.2-0.5-0.1 0.3-1.5 0.3-0.8 1.4-4.1 0.1-1.6-0.6-3.2 0-1.6 0.9-1.6 1.3-1.2 1-0.6 0.4-0.9-0.3-3.5-0.1-0.8-0.4-0.3-1-0.1-0.8-0.3-0.6-0.4-0.6-0.8-0.4-1.5 0.2-1.7 0.8-3.2-0.3-3.2-1.1-2.9-0.2-2.8 2-2.7 0.8-0.4 1-0.3 0.8-0.4 0.3-0.9-0.5-0.7-1.9-1.6-0.7-0.8-0.3-1 0.1-0.6 0.3-0.5 0.7-1.4 0.6-0.8 0.3-0.7 0.1-1.1-1.6-18.8 0.2-0.8 0.5-0.3 0.8 0 1.7 0.3 0.2-0.2 0.1-0.4 0.1-0.7 0.2-3.2-1.6-2.8-2.3-2.7-1.5-2.8-0.4-3 0.2-2.5 0.7-10.3-0.2-1.1-0.7-1.1-1.8-2-0.8-2.2-0.7-1 0-0.3z" id="NGOG" name="Ogun">
  </path>
  <path d="M50.9 450.5l0.5-0.4 3.9-3.5 1.5 0 1.5 0.2 6-1.4 1.8-1.3 1.4-1.7 4.1-3.4 1.8-0.6 0.5-0.8 1.2-1 1.5-0.9 3.1-2.7 1.7-1 1.7-0.5 1.2-0.2 1.2 0.3 0.7 0.8 0.9 0.5 0.8 0.9 0.9-0.2 9-4 3.4-2.6 3-1.5 3.3-2.5 15.6-7.9 1.7-1.3 1.5-1.6 0.7-5 1.9-3.7 3.4-2.5 3.7-0.3 3.4 1.5 2.2 2.8 1.7 3.4 2.9 2.5 3.4 1.8 9 3.2 5.5 1.3 2.1-0.1 3.7-2.3 1.3 3-2.6 3.7-2.5 1.5-1.9 1.9-1.2 2-1.7 1.6-0.9 4.6 1 4.7 6.7 15 2.7 4 2.6 10.3 2.7 4 1.7 1.6 2 1.3 2.8 4.4 2.2 7.3 0.9 1.5 1.3 0.3 1.2 0.8 0.6 2.6-0.2 2.6-0.6 1-0.4 0.4-1.7 0.3-1.3 0.5-1.4 0.9-1.3 1.1-0.2-0.3-0.6 0.6-0.5 0.7-0.4 0.4-2.2 1.6-1.6 1.6-3.1-0.6-2.7-4.5-2.1-1.9-2.4-0.9-1.6 1.7-1.4 2-0.8 0.6-0.7 0.7 0.1 1.7-3.9 2.8-5.1-1.4-1.3 3.5-0.2 5-0.4 2.2-0.7 2.2-1.3 1.9-0.1 2.3 1.6 1.7 2.1 1.3 1.6 2.1 1.3 2.4 1.4 1.9 0.5 2.1-5.2 27.6-2.3 0.4-2.3 0.2-2.4 0.8-2.1 1.4-4.7 1.2-9.3 1.2-4.6-0.2 2.1-3.5 2.8-3.9-0.9-4.5-0.5-1.1-0.2-1.2 0-1.5-0.5-1.3-2.2-1.2-2.2-1.6-0.2-1.4 0-4.2-2.6-3.7-7.5-0.2-2.3 1-2.2 1.2-2.2-1.3-1.3-3.7-2.8-2.1-3.1 2.1-3.1 7.6-3 2.6-4.3 0.2-4.1-1.4-5.4-4.9-3.4-6.2-2.5-3.2-3.1-2.6-1.5-4-0.1-1.6 2.8-7.7-0.5-6.8-2.8 0.1-1.1 3.3-0.8 4-2.1-0.4-1.3-4.1-0.4-8.6-1.9-3.6-7.3-0.2-6.6 4.6-0.5 0.3 0-0.3 0.1-0.6 0.8-1.4 0.3-0.7 0.3-4.9 0.9-4.8 0.2-4.6 0.2-1.4 0.6-1.3 0.8-1.2 0.6-1.5 0-1.6-0.5-1.7-1.5-3.1-0.6-1.7-0.3-1.9 0.1-1.4 0.6-3.2 0-0.7-0.2-1.4 0-0.7 0.4-1 1.5-1.7 0.6-0.9 0.6-2.6-0.1-2.2z" id="NGOY" name="Oyo">
  </path>
  <path d="M48.5 607.4l0.5 0.1 2.5 0.2 2.6-0.3 1.9 0.7 1.9-0.1 2.1-1.4 1.4-1.6 0-1.1 0.8-0.4 16.5 0.7 4.5-0.6 1.1-1.3 0.8-3.7 1.1-1.6 1.2-1.2 1.1-3.9 0.5-1.1 2.3-1 1.8 0.6 3.5 1.8 1.7 2.2 2.7 0.1 1.5-0.2 0.9-1.3 0.3-1.1 0.6-0.7 44.3-0.2 4.5 1.2-0.8 2-1.9 1.4-0.6 1.9 0.8 1.9 0 0.9 2.2 1.8 2.3-1.2 2.3-1.5 2.5-0.6 2.1 0.8 0.8 1.6-0.7 1.6-4.3 2.4 0.1 1.9 1.7 1.1 2.2 0.6 1 0.9 1.3 0.8 1.8-0.4 4.3 0.2 2.1 0.7 0.1 2-0.3 2.1-0.1 0.2-16.3-3-19.4-1.6-32.3 1.6-1.7-0.3-0.9-0.7-0.8-0.8-1.1-0.8 0.7-0.4 0.6-0.1 0.4 0.1 0.5 0.4 1.1-1.1 0.5 0.4 0.1 1.2 0.3 1.1 2.7-2.5 0.4 0.1 0.3 0.6 0.6 0 1-0.3 1.4-0.1 1.3-0.2 1.2-0.6 1-1.2 0.1-0.9-0.1-0.8 0-0.7 0.8-0.2 3.1 0 1.6-0.4 3.3-1 1 0.3 1.7-0.7 1.5-0.9 1.1-1.2 0.4-1.6 1-0.4 6.3-0.9-0.6-0.5-0.5-0.2-0.4 0-0.6 0.1-4.3-1-4.3 1.6-4 2.4-3.7 1.2-1.4 0-0.8 0.1-2.6 1.4-0.9 0.4-0.9 0.1-1 0.1-0.2-0.2-0.9-0.3-0.9 0-0.5-0.4-0.3-0.2-0.3-1-0.1-0.9 0.6-1.7 0-1-1.3 0.7-0.9 0.8-1.7 1.8-0.6 0.3-0.8 0-0.6 0.2-0.3 0.6 0.1 0.5 0.4 1.2 0 0.7-0.3 0.8-1 1.6-0.3 0.9-0.3 0.6-0.5 0.4-0.3 0.5 0.4 0.6 0.4 0.4 0.2 0.4 0.1 0.5 0.4 0.4-0.4 1.7-4.4 0.4-8.5-0.4-10 1.2-11.7-0.6-17 1.6 0.1-4.7 0.5-3.4z" id="NGLA" name="Lagos">
  </path>
  <path d="M884.8 264.8l-4.4 0.3-11 2.5-2.5-0.4-2.4-0.9-0.9-0.7-1-0.2-2.6 0.4-0.7 4.4 0.1 5.2-1 5.4-4.2 10.4-2.7 10.2-3.8 2.2-5.2-1.2-4.4-2.9-4.2-3.7-5.2-2.2-6.5-0.9-6.2 1.4-4.1 4.8-4.5 4.1-2.8 0.1-1.9 1.4-1.4 2.8-2.1 2.3-5.4 2.5-6.1 0.6-5.5 1.3-4.4 3.7-7.8 10.2-9.6 6.8-12.3-0.7-5.4-3.4-5.1-8.2-2.7-1.9-3.3-1.3-2.9-2-2.4-2.9-1.5-3.4 0.1-3.4 5.6-9.1-0.9-6.7 2.9-0.8 2.4-1.9 1.7-2.3 0.9-2.7-0.5-6.4 1-6.2 4.3-4.8 17.9-6.3 4.7-3.5 2.3-5.3-0.4-6.5 0.4-6.6 1.6-2.5 2.1-2.2 3.1-5.6 7.7-9.6-0.4-2.8-1.3-2.7-2.3-2.6-3-1-2.6 0.4-2-0.6 0.4-3.1 4.6-9.1 0.4-3.4-1.8-7.7 3.5-26.1-1.6-11.6 8.4-7.9 3.3-4.7 1.9-4.7-0.7-4.8-4-3-3.4-3.8-1.3-4.9 1.7-14.9 0.1-0.1 2 0 1.8 0.3 1.4 0.5 1.3 0.3 1-0.5 0.4-0.9 0.6-4.2 0.4-0.3 1.7-0.3 0.6-0.2 0.6-0.7 0.4-0.8 0.5-1.7-1.3-0.5 0.6-1.1 0.9-1.4 0.3-1.3 2.7-2.6 0.4-0.3 0.3 0.4 0.5-0.1 0.5-0.4 0.5-0.5 0.2-0.5 0.1-1.3 0.8 0.7 0.6 0.6 0.8 0.6 1.2 0.2 0.6-0.4 0.5-1.8 0.9-0.4 1.7-0.4 1.3-1 1.9-2.4 0.5-1.3 0.1 0 0.3-0.3 0.4 0.3 0.4 0.6 0.2 0.2 1.1 0-0.1-0.3-0.4-0.6-0.3-0.9 0.2-0.3 1-0.4 0.3-0.2 0.2 0 0.7 0.1 0.2-0.1 0-0.2-0.1-0.6 0.1-0.2 2.1-2.4 1-0.8-0.5-0.6-0.5-0.5-0.5-0.3-0.6-0.2 0-0.6 1.1 0.3 1 0.5 0.7-0.1 0.3-1.2 2.1 0.4 2.1-0.4 6.8-3.4 2-0.7 2.1-0.2 0 0.5-0.4 0.8 0.8 0.3 1.4-0.1 1.3-0.4 0 0.3 0 0.8 0.5-0.6 0.6-1.3 0.4-0.3 0.8 0.2 0.1 0.6-0.1 0.8-0.3 0.6 2-0.9 2.1-0.4 1.8-0.7 1.4-1.8-1.1-0.1-0.1-0.4 0.7-1.1 0.3-0.1 0.5 0 0.5-0.1 0.2-0.6-0.1-0.4-0.4-0.6 0.1-0.3 0.4-0.8 0.5-0.7 3-2.9 1.2-0.8-0.1-1.3 0.7-0.6 2.2-0.3 0.1-0.1 18.7 0.9 17.4 24.3 17.3 24.4 4.3 20.7 4.2 20.7 0.1 6 0.1 0.3 0.4 1.3 0 1.5-0.4 2.4 0 0.9 0.7 1.2 1 0.6 1.2 0.2 15.5 0.5 4.9 1.2 2.1 1.1 0.2 0.8-0.4 1.1 0.2 0.8 0.5 0.5 2.2 1.7 0.9 0.4 0 0.5-0.3 0.2-0.8 0.4 1.5 1 1.6 0.9 1.2 1 0.5 1.6 0.4 0.3 1-0.3 1-0.6 0.7-0.2 0.9 0.4 0.3 0.8 0.1 0.8-1.4 1.5-0.2 0.5-0.4 0.5-0.4 0.9-1.3 5.5 0.1 0.8-1.3 0.9 0.1 1.5 1.5 3.4 0.1 0.8 0 0.6-0.3 2.5-0.8 2.5-1.7 7.9-0.5 1.3-2.8 3.7-0.4 0.6 0.2 0.7 0.6 1 0.3 0.1 1.3 0 0.6 0.3 0.3 0.5 0.3 0.6 0.4 0.5 1.2 1.2 0.9 1.3 0.4 1.6 0 2-0.2 1.6-0.6 1.9-0.8 1.8-0.9 1.5-1.3 0.7-3.9 1.4-1.6 1-2.8 2.5-1.6 0.9-4.5 1.4-1.4 0.8-6.8 6.3-0.6 0.2-2 0.3-0.9 0.4-2.1 2.2-1.4 1-1.6 0.8-1.7 0.4-1.5-0.2-5.3-2.3-3-0.8-2.4 0-2.9 2.3-2.8 2.9-2.5 3.2-1.8 3.3-1.3 3.1-0.9 1.2-2.9 1.6-1.2 1.1-0.9 1.3-0.3 1.6 0.5 2.9-0.6 1.2z" id="NGBO" name="Borno">
  </path>
  <path d="M748.1 334l12.3 0.7 9.6-6.8 7.8-10.2 4.4-3.7 5.5-1.3 6.1-0.6 5.4-2.5 2.1-2.3 1.4-2.8 1.9-1.4 2.8-0.1 4.5-4.1 4.1-4.8 6.2-1.4 6.5 0.9 5.2 2.2 4.2 3.7 4.4 2.9 5.2 1.2 3.8-2.2 2.7-10.2 4.2-10.4 1-5.4-0.1-5.2 0.7-4.4 2.6-0.4 1 0.2 0.9 0.7 2.4 0.9 2.5 0.4 11-2.5 4.4-0.3-0.4 1-13.5 19.4-2.1 4.4-2.8 9.6-2.6 14.6-1.7 4.8 0 1 0.5 1.5 0.1 0.9-0.1 1.1-1.2 2.6-0.9 1.1-1.6 1.2-0.7 0.5-1.1 0.6-1.4 0.6-6 0.7-2.5 0.9-1.3 2.7 0 1.5 0.9 2.5 0.3 1.5-0.3 1.8-1.8 2.8-0.6 1.6 0.1 1.7 0.8 1.3 2.2 2.3 0.8 1.7-0.1 1.2-0.8 1.3-0.7 1.8-1 5.2-0.3 5-2.2 5.5-4.9 1.9-6 0.9-5.2 2.3-1 0.9-2.2 2.8-0.9 0.8-0.6 0.5-4.4 2.1-0.5 0.4-0.6 1.4 0.4 0.2 2.2 0.3 0.7 1.6 0.6 2.3-0.1 3-0.3 1.5-0.4 1.3-3.5 6.3-1.6 3.7 0 3 0.5 2.8-1.7 14.5-0.8 3.3-1.7 2.3-1 0.4-0.9 0-1-0.2-1.1 0-0.8 0.4-0.6 0.9-0.6 2.1-1.2 2.5-1.3 1.5-7.8 4.1-1.1 0.3-1.2-0.2-2.4-1.2-1-0.2-1.4 0.1-0.9 0.5-0.9 0.6-1.2 0.6-1 0.1-1.1-0.2-2.1-0.7 0.6 1.1 1.8 4.4 0.2 1 0.1 2.2-0.7 0.7-2.3 1.6-0.6 0.7-0.4 1-0.6 0.9-0.9 0.6-1.6 0.2-2.9-0.5-1.7 0.7-1.7 2.5-0.6 3.3 0.2 3.5 1.2 6.2-0.1 1.5-0.2 0.7-0.4 1-3.1 4.4-0.4 1.8 0 3 0.4 2.9 0.5 1.9 0.2 1.3-0.4 1.1-2.9 3-7.5 10.5-2.7 5-0.5 1.6-0.3 1.6 0.2 1.7 1.1 4.4-0.3 1.6-1 0.9-1.2 0.8-2 3-4.7 4.7-0.1-0.1-0.9-3.9-1.9-4-1-5.1 0-5.1-3.6-8.8-7.4-7-1.9-2.3-2.6-1.2-2.5 1.1-1.4 2.3-1.7 2.1-2 1.7-2.5-0.2-2-2.2-3.1-5.4-3.3-8.2 0.7-2.4 4.2-4.9 4.9-4.4 19.6-23.6 5.1-4.2 0.7-2.5-0.4-2.8 0.6-5.3 7.6-15.8-0.5-5.3-3.1-3.9-4.8-2.4-2.6-4.4-0.1-2.7 0.4-2.7-0.8-2.4-1.4-2.2-2.6-5.6-4.4-3.9-2.4-0.8-2.6-0.4-1.9-1.8-7-13.2 7-1.1 6.4-2.9 14.1-8.4 2.8-2.3 1.1-3.2-0.4-10.2 0.8-6.7z" id="NGAD" name="Adamawa">
  </path>
  <path d="M716.3 368.8l7 13.2 1.9 1.8 2.6 0.4 2.4 0.8 4.4 3.9 2.6 5.6 1.4 2.2 0.8 2.4-0.4 2.7 0.1 2.7 2.6 4.4 4.8 2.4 3.1 3.9 0.5 5.3-7.6 15.8-0.6 5.3 0.4 2.8-0.7 2.5-5.1 4.2-19.6 23.6-4.9 4.4-4.2 4.9-0.7 2.4 3.3 8.2 3.1 5.4 2 2.2 2.5 0.2 2-1.7 1.7-2.1 1.4-2.3 2.5-1.1 2.6 1.2 1.9 2.3 7.4 7 3.6 8.8 0 5.1 1 5.1 1.9 4 0.9 3.9 0.1 0.1-4.5 4.3-4.7 7.1-1.5 1.4-1.4 1-0.6 0.7 0.4 0.4 1.8 0.4 1.1 0.9 3.8 5.5 2.9 3.2 1 1.9-0.7 1.7-0.8 0.3-0.6-0.1-0.7-0.4-0.8 0-1.1 0.3-0.8 0.5-3.2 2.9-1.2 0.8-0.2 0.7-0.1 0.7-0.5 0.6-0.5 0.2-1.2 0-0.8 0.2-0.8-0.1-0.3 0.1-0.3 0.4-0.3 1-0.3 0.4-4.4 2.8-4.6 4.3-1.4 1.9-0.4 2 0.5 1.2 1.6 1.9 0.4 1.3-0.2 2.1-0.5 2-2.2 5.2-1.8 2.5-2 1.1-3 0.3-2 1.7-1.2 2.5-0.4 3.2-0.5 1.7-1.5 1.4-1.9 1-1.9 0.4-0.8 0-1.7-0.4-0.8-0.1-0.3 0.2-0.8 0.7-0.4 0.2-0.6-0.1-0.8-0.5-0.4-0.2-2.3 0.3-4.7 0.5-2-0.3-1.3-1.2-1.4-3.6-1.3-5.9-0.3-3 0.2-3-0.3-3.6-1.4-3.1-2.6-2-7.1-1.3-2.4-2.5-1.5-3.3-0.7-3.5-1.2-3-2.5-1.7-6.3-2.4-5.3-2.8-2-0.6-1.3-1.1-0.4-3.8-1.4-1.8-1.1 2.2-1 2.7-0.6 2.9-0.5 5.9-0.3 0.2-0.4 0.1-0.5 0.4-0.9 1.2-0.6 1.1-0.3 1.2-0.1 1.7-19.5 0.3-2.1-0.7-1.6-1.2-0.8-1.5-1.1-5.6-0.6-1.3-1-0.2-1.8 1-18.6 15.8-1.7 0.8-1.5-0.5-1.5-0.7-1.8-0.1-1.4 1.6-5.8 18.2 0 0.3-1 0.7-2.7 0 0-0.1 1.8-7.3 0.9-12.8-0.3-4.8 2.5-13.3 2.3-4.5 3.1-3.8 3.8-2.8 3.3-3.1 0.5-8.9 3-9.2-3.3-8.9-7.8-6.9-6.8-8.5-8.6-6-11.5-1.3-11.7 0.3-3 0.6-5.1 2.3-2.4 0.6-0.9-1.7 4.2-6.3 2.6-2.2 11-7.4 1.6-1.3-0.3-2.1-0.6-1.4 0.2-1.3-0.3-3.9-4-5.1 0.3-2.4 0.8-2 1.3-1.7 1.8-0.8 3.8 1.3 1.7 0.9 2.2 0.4 2.3 0.7 2.1 0.3 2.1-0.1 3.1-2 2.1-3.3 4.1 0.3 5.7-0.4 5.5-1.6 4.9-3.7 4.4-4.5 5-3.6 5.4-3 2.1-1.9 4-4.8 1.7-2.7 3.7-4.4 17.5-4.3 12-5.9 2.6-5-0.1-2.9-1-4.8 0.6-2.3 0-2.3-2.2-7.3-1.3-2.1-0.6-2.2-0.8-5.8 0.5-4.9-0.5-4-1.6-3.7 4.1-2.7 9.6-0.3 9.3-4.3 5-0.9 5.2 1.3 5.3 0 8 0.6 26.6-1.1z" id="NGTA" name="Taraba">
  </path>
  <path d="M537.8 497.4l-4.2 6.3 0.9 1.7 2.4-0.6 5.1-2.3 3-0.6 11.7-0.3 11.5 1.3 8.6 6 6.8 8.5 7.8 6.9 3.3 8.9-3 9.2-0.5 8.9-3.3 3.1-3.8 2.8-3.1 3.8-2.3 4.5-2.5 13.3 0.3 4.8-0.9 12.8-1.8 7.3 0 0.1-0.9 0-2.2 0.5-1.2 0.9-1.7 3.4-1.2 1.2-1.6 0.8-3 1.1-1.5-2.5-2.2-3.9-9-10.7-6.7-3.4-12 2.3-4.3 0-2-0.4-1.5-1.3 0.7-4.6-1.8-3.9-9.1-5.3-5.5-2-5.2-0.4-4.9 1.8-0.9 2.5 0.7 2.9-1.3 2.1-2.6 1.4-3.2 0.8-3.3 0.1-3.1-0.5-2.9 0-2.3 1.7-2 2.2-2.3 1.2-2.5 0.3-1.7-2-1-2.5-0.6-3-0.8-1.2-1.5-0.2-0.3 0.8-0.9 1.3-1.7-0.1-1.7 0.4-2.9 3.8-2.9 0.7-3 0-3.2 0.4-1.2 2.5-0.7 6.4-3.4 4.6-5.2-3.2-2.5-5.3 2.6-7.1 0.1-3.7-0.9-3.7-1.9-3-3.1-1.5-2.8 0.7-2.2 1.7-3.1 0.3-2.8-1.4-2.9-2-2.5-2.4-2.1-2.6-2.9-6.1-0.8-3.1 2.9 1.4 3.3 2.7 2.4 1.1 2.1-0.6 0.2-3.5 1.2-3 10-5.5 3.2-5.2 1.3-6.1 0.2-2.5 0.9-2.2 1.5-2.7-1.9-1.3-2.8 0.4-2.5-1.4-0.9-2.9-1.2-9.2 0.2-8.8-0.3-2.8-1.5-2.7-2.2-2.3-2.3-3.3-0.9-3.8-0.2-4.1 0.4-4.4 3.8 1 4.9 0.5 3.6 1.3 2.6 0.6 5.4 0.6 2.6 0.7 3.8 2.3 1.3 0.5 6.4 1.1 2 0.7 4.1 2.1 2.4 0.7 2.4 0.3 2.2 0.6 1.7 1.9 3.6 2 1.8 1.4 0.9 0.5 0.9 0.3 0.6 0.1 1-1.3-0.5-2.6-3.6-7.9-1.8-5.5 1.3-5.4 4.2-3.6 10-1.1 15.3 5.1 5.5 1.2 8.3 0.3 2.8-0.2 0-0.5 14.4 10.8z" id="NGBE" name="Benue">
  </path>
  <path d="M562 611.7l-0.5 0.2-2.2 1.4-2.3 4.4-2.1 1.3-1.2 0.1-1-0.1-0.9 0.1-1 0.5-1 1.2-2.2 4.6-1.9 2.7-10.4 8.4-7 7.3-1.6 2.4-1 1-1.2 0.6-0.4 0.5-0.2 2.2-0.2 1-1.4 0.2-1.6-0.6-1.7-0.3-1.3 1.3-1 1.3-2.7 1.8-0.8 1.2 0.2 1.6 0.8 1.2 0.7 1.3-0.4 1.9-1.3 1.7-1.3 1-0.6 1 1 2 1.5 1.5 1.7 1.3 1.4 1.5 0.8 2-0.4 1.8-1.1 1.5-1.4 1.4-1.2 1.5-0.4 1.6 0.1 1.5 0.2 1.5 0.1 1.6-0.5 1.7-1.6 3.2-0.5 1.8 0.1 1 0.6 1.9 0.1 0.8-2.1 10.3-0.5 1-0.8 0.4-0.9 0.1-0.8 0.4-0.8 0.8-1.5 2.3-0.4 1-1.2 3.3-0.7 1.5-1.1 1.6-3 4.7-0.4 1.4-2.1 1.5-0.7 1.2 0.3 1.6 0.2 1.1 0.3 1.1-1.3 1.2-0.1 0-0.1-0.4-0.5-0.3-0.7-0.2-0.6 0.3-0.8 0.7-0.7 0.8-0.3 0.6-0.1 0.6-0.7 1.5-0.2 0.8 0 0.7 0.5 1.1 0 0.7-0.7 1.2-0.8 0.4-1-0.2-1.2-0.3-0.3 0-0.7 0.1-0.6-0.2 0.4-0.7 0.3-0.5 0.3-0.8 0.2-0.8-0.3-0.3-0.7 0.2-1.5 0.7-1 0.2-2.2-0.9-0.1-2.1 0.7-2.7 0.4-2.6-0.5 0-0.5 2.6-1.7 1.3-2.1-0.1-2-1.8 0.2-0.3 0.3-0.7-0.5-0.2-1.6-0.8 0.4-1.1-0.6-0.8-2.1-1.5-1.8-1.1-0.1 0-0.4-1.3-0.9-1.6-0.5-0.7-1-0.3-0.8-0.3-0.9-0.9-0.8-0.8-0.3-0.6-0.5 0 0 0.5 4.1 3.9 1.1 1.3 1.9 3.7 0.3 1.7-1.2 0.9 0.5 1 0.8 1.2 0.8 1 0.7 0.4 0.4 0.3-0.9-0.1-2.9-2.2-8.9-9.3-2.7-3.8-2.1-3.8-1-4.3 0.5-9.3-1.2-1.4-3.4-2.1-2-0.5-4.4 0.7-1.5-1.1-0.9-1.5-1.2-3.2 2.1-2.4 3.6 0.7 0.9-2.7-3.6-7-1.8-8 0.7-4.3-1.3-3.5 0.3-1.9 0.7-1.7 1.2-1.5 1-1.5-0.2-1.7 0.1-1.8 1-1.1 2.7-4.1 0.9-3.4-1.2-2.4 0.9-1.9 3-1 2.9 0.9 1.5 3.4 1.9-0.1 1.4-1.3 3.5-1.7 1.2-1.5 1-1.6 2 0 2.2 1 1.2-2 1.4-5.7 1.5-2.3 1.7-2.3 4.3-4.3 0.6-5.2-1.4-2.2 0.5-2.6 4.8-2.6-0.3-2.4-1.6-2.1-0.8-2-0.3-2.4-1.3-1.5-0.3-0.8-0.5-0.8-1.1-0.6-1-0.8-2.9-3.3-1.1-4.2 2.5-0.3 2.3-1.2 2-2.2 2.3-1.7 2.9 0 3.1 0.5 3.3-0.1 3.2-0.8 2.6-1.4 1.3-2.1-0.7-2.9 0.9-2.5 4.9-1.8 5.2 0.4 5.5 2 9.1 5.3 1.8 3.9-0.7 4.6 1.5 1.3 2 0.4 4.3 0 12-2.3 6.7 3.4 9 10.7 2.2 3.9 1.5 2.5z" id="NGCR" name="Cross River">
  </path>
  <path d="M223.7 207.8l-1.5 1-1.7 0.1-0.8-1.2-1.1-0.7-0.9 0.3-0.9 0.3-1.2-0.7-1.6-0.4-1.6 0.4-14.4 6.5-2.6 3.3-3.3 2.1-3.4-1.1-2.5-2.8 0.7-7.4 3.3-7.2 2.6-12.1-0.5-29.8 2.7-4.8 5.4-1.4 5.2 1.7 3.4-1.8 0.3-5.8-2.3-12.5 0.3-2.9 0.8-2.9 0.6-5.6-1.7-4.9-2.5-4.4 0.4-3.1 0.9-2.9 0.4-1.1 0.3-1.2 0-1.5 0.3-1.4 1.1-2.3 0.2-2.4-1.3-1.7-1.9 0.7-1.5 1.8-1.1 2.1-2.4 1.4-2.8-0.3-2.8-1.3-2.5-1.7-2.6-1-2.8-0.7-5.1-1.9-4.7-2.8-2.3-2.2-2.3-1.9-2.8 0.6-2.6 1.3-4.9-0.8-5.8 0.1-0.6 0.2 0.2-1.8 0.2-18.6 4.9-0.2 2.2-0.4 2.2-1.1 11.9-11.4 3.5-2.6 4.1-1.6 9.1-2.2 15-3.7 2.5-0.3 1.7 0.8 1.7 1.6 1.7 0.8 4.4 0.3 7.7-1.4 10.9 0.4 2.6-0.5 0.8-0.3 2.4-1.7 1-1.2 1.3-2.9 0.8-1.2 2.1-1 11.2-2 2.5 0.5 21.4 8.6 21.5 8.6 0.7 0.3 0.5 0.5 0.5 0.2 0.7-0.2 4.4-2.5 1.5-0.3 4.1 0.9 1.4 0.3 5 2.9 10.7 10.2 12.3 13.6 6.2 11.4-3.8 3-5.9 3.4-7.4 0-7.4-1.8-1.2-1.2-1.2-1.4-1.4-0.5-1.4-0.4-1.6-0.2-3.6 0-1.1 1-0.3 1.9-0.1 2.1-0.9 3.2-1.9 0.5-2.9-1.2-5.5 0.7-4.8 2.7-0.9 2.2 1.3 13.3-2.2 4.2-2.7 1.3-2.8 0.7-17.1 1.7-3.8 3-2.9 4.6-3.9 5-3.6 2.5-0.5 5.1 1.5 5.7 0.3 6.1-3.7 4-23.2 1-11.1-1.9-2.8 9.3-0.6 36.3z" id="NGSO" name="Sokoto">
  </path>
  <path d="M299.7 251.8l-0.7-11.8-5.8-9.3-2.9-1.1-1.5-2.4 1.9-5.8 0.4-5.3-3.6-3.5-2.8-1-5.6-0.9-1.3 0.3-1.2 0.7-11.5 0.8-4.5-1-6.6-2.9-1.1-2.2-1.8-1.5-4.3 0.6-1.8-0.1-1.6-0.7-1.7 0.1-1.3 1.3-0.6 1.8-1.4 0.8-1.7 0.1-4 1-1.6-0.3-1.2-1.1-3.1-1.2-3.1 0.6 0.6-36.3 2.8-9.3 11.1 1.9 23.2-1 3.7-4-0.3-6.1-1.5-5.7 0.5-5.1 3.6-2.5 3.9-5 2.9-4.6 3.8-3 17.1-1.7 2.8-0.7 2.7-1.3 2.2-4.2-1.3-13.3 0.9-2.2 4.8-2.7 5.5-0.7 2.9 1.2 1.9-0.5 0.9-3.2 0.1-2.1 0.3-1.9 1.1-1 3.6 0 1.6 0.2 1.4 0.4 1.4 0.5 1.2 1.4 1.2 1.2 7.4 1.8 7.4 0 5.9-3.4 3.8-3 1.9 3.4 4.5 5.2 2.7 2.6 2.5 1.8 2.3 0.9 2.5 0.3 5.6 0 1.4-0.2-1.3 8.1 2.4 32 1.7 3.9-0.4 4.7 2.1 4.1 1.1 3.9 0.4 4 0.7 2.2 0.5 2.4-0.5 2-1.7 4.5-1.2 2.4 1.5 1.9 2.6 1.2 4.2 3.4 0.8 4.6-2.3 0.9-2.4-0.7-1.3 1.4-0.4 2.5-1.8 1.7-3.2 2.6-1.2 0.6-0.5-0.2-0.6-0.7-0.5-0.2-5.6 0-4.4 2.1-2.9 13.8 2.6 4.8-0.5 2.6 0.3 2.7-0.7 3.6-1.2 3.4-1.2 2.3-1.6 1.5-5.3 3.4-1.6 2-0.8 2.3-1.4 6.9-0.8 1.7-1 1.3-1.1 1-1.4 0.8-6.3 2.5-0.7 0.3-0.7 0.2-1.2-0.2-0.8 0.1-5 1.5-1.7 0-1.7-0.4-5-1.8-1.6-0.2-1.5 0.6-0.9 1.1-1.4 2.9-0.9 1.2-0.8 0.5-1.8 0.7-0.8 0.5-0.6 1-0.1 1 0 1-0.3 1-1.1 1-3.5 1.2-1.1-5.1-5.8-9.8-3.3-4.3z" id="NGZA" name="Zamfara">
  </path>
  <path d="M781.6 99.4l-0.1 0.1-1.7 14.9 1.3 4.9 3.4 3.8 4 3 0.7 4.8-1.9 4.7-3.3 4.7-8.4 7.9 1.6 11.6-3.5 26.1 1.8 7.7-0.4 3.4-4.6 9.1-0.4 3.1 2 0.6 2.6-0.4 3 1 2.3 2.6 1.3 2.7 0.4 2.8-7.7 9.6-3.1 5.6-2.1 2.2-1.6 2.5-0.4 6.6 0.4 6.5-2.3 5.3-4.7 3.5-17.9 6.3-4.3 4.8-1 6.2 0.5 6.4-0.9 2.7-1.7 2.3-2.4 1.9-2.9 0.8-2.8 0.3-5.4-0.5-0.6-2.3-0.6-5.6 1-17.7-0.5-2.6-1.6-2-7.9-8.1-3.7-5-4.2-4.5-4.8-3.7-10.4-5.1-10.5 2.7-3.7-0.5-2-2.7 2.6-11.9-0.4-6.5-9.1-22.6-2.3-12.4-0.1-5.4-0.5-3.3-1.4-3-1.6-2.5-0.4-2.7-0.1-3.1-1.2-6.2-1-2.9-4.3-4.2-5.2-3.6-1.6-5-1.4-11-2.3-5-2.1-1.6-2.6 0.1-2.8-0.6-2.7-1.3-2.5-0.2-5 1.4-3.3-0.5-0.7-1.9-2-7.8-1.9-3-3.2-1-3.4 0.9-7.1 2.9-3.7 1-5.3 2.2-1.3 1-0.9 2.1-1.2 1.9-6.6 2.9-7.2-2.4-2.1-0.5 13-15.5 2.6-2.4 1.4-1 0.8-0.2 0.4 0 0.3 0 0.6-0.7 0.4-0.8 0.3-1.9 0.3-0.8 1.3-1.3 14.4-8.1 3.2-1.3 36.8-8 2.1-0.4 7.3-0.6 13.7 1.6 36.9-0.2 22.9 5.9 8.4 3.4 10.5 6.5 3.5 2.8 1.5 0.7 4.5 1.1 2.5-0.2 1.1-0.2 1.6-1.1 1.2-0.3 3.8 1.4 0.9 0.5 0.3 0.5 0 0.4 0.2 0.3 0.6 0.1 0.2-0.2 0.4-0.4 0.4-0.4 0.8-0.1 0.7 0.5 0.6 0.7 0.5 0.3 0.8-0.4 1.2 0.4 2.7 0.1z" id="NGYO" name="Yobe">
  </path>
  <path d="M378.2 105.9l0.4-0.1 1.7-0.8 3.5-3.2 4.7-5.5 1.6-0.3 7.9 1.5 2.8 0 2.3-0.8 27.6-16.7 2.6-1.1 2.6-0.3 19.2 2.8 2.1 0.8 0.8 0.6 1.8 1.7 2.1 1.3 2.6 2.1 1.1 0.5 2.2 0.6 0.1 0 1 0.5 1 0.9 1.9 2.3 7.5 6.9 0.6 0.4 0.8 0.3 0.2 0 0.4-0.2 0.8-0.5 0.9-0.2 1.9-0.3 0.9 0 2 0.5 1.8 0.9 3.3 2.5 1.5 1.6 2.2 3.6 1.3 1.6 2.8 1.6 19.9 6 2.7 0.3-0.1 0.7-0.4 1.2-1.3 0.5-0.9 0.9-0.7 1.1-0.6 1.5-0.8 1.3-3.4 2.7-3.6 1.9-4.1 1-3-0.3-1.1-1-1-1.2-2.3 1.4-1.8 0.1-1.9-0.8-1.7-1.1-2.1-3.5-1.3-4-1.4-1.4-11.7 0.5-5-0.6-5.4 0.1-8.1 1.3-1.1 2-0.6 5.2 0.2 5 4 2.5 6 0.1 1.6 1.8 0.9 2.3-3.7 0.1-3.5 1-1.8 3.3-2.5 7.5-2.8 2.6-13.3 5-5.8 4.1-0.9 3.5 0.7 7.5-0.4 16.2 1.6 5 0.3 2.5-0.1 1.5-0.4 1.4 0.3 1.2 0.7 1 1.9 4.8 0.2 3-3.3 0.8-4.3 2.2-3.5 0.9-2.4 2.8-1.2 3.7-0.5 3.8 1.1 3.9 5.2 4.5-2.6 4-6.1 2.5-2.2-0.9-1.5-2.1-2.6-1.9-2.9-1.3-5.5-1.1-4.8 2.8-1.2 2.5-0.4 2.8-2.1 1.1-2.7-1-5.8 0-1.3 4.1 1.3 2 0.1 2.2-1.9 2-2.4 1.3-2.6-0.3-3.9-4.1-2.6-1.6-5.6-1.5-0.1-2.1 2.1-2.3 1.2-0.9 0.2-1.5-0.9-1.8-1.6-1.2-4-0.1-1.9-0.5-3.4-1.7 1.2-3.4 0.7-3.6-0.3-2.7 0.5-2.6-2.6-4.8 2.9-13.8 4.4-2.1 5.6 0 0.5 0.2 0.6 0.7 0.5 0.2 1.2-0.6 3.2-2.6 1.8-1.7 0.4-2.5 1.3-1.4 2.4 0.7 2.3-0.9-0.8-4.6-4.2-3.4-2.6-1.2-1.5-1.9 1.2-2.4 1.7-4.5 0.5-2-0.5-2.4-0.7-2.2-0.4-4-1.1-3.9-2.1-4.1 0.4-4.7-1.7-3.9-2.4-32 1.3-8.1z" id="NGKT" name="Katsina">
  </path>
  <path d="M574 118.7l2.1 0.5 7.2 2.4 6.6-2.9 1.2-1.9 0.9-2.1 1.3-1 5.3-2.2 3.7-1 7.1-2.9 3.4-0.9 3.2 1 1.9 3 2 7.8 0.7 1.9 3.3 0.5 5-1.4 2.5 0.2 2.7 1.3 2.8 0.6 2.6-0.1 2.1 1.6 2.3 5 1.4 11 1.6 5-10 6.7-4-1-2.3-1.5-5.7 1-2.4 0.9-1.7 1.7-1.1 3.3-0.7 3.4-5.5 15.5-0.5 2.5 0.7 3.2-1.2 2.6-23.1 8.9-2.5 1.6-2.5 1.2-6.4 0.5-4.1 3.7-1.6 5.7 3.2 2.2 4.7-1.3 2.7-0.3 2.6 0.6 1.2 2.6 1.1 5.5 0.1 2.6-2.5 4.8-0.3 2.5 1.5 2.1 2.5 0 1.3-0.4 3.1 5.5 7.3 9.7 5.5 2.2 12.1 2.3 6.4 0.3 5.5 1.8-0.4 2.5-1.8 2.1-2.6 1.6-8.4 3.3-1.5 5.2 0.8 2.8-2.1 1.3-2.9-1.1-2.6-1.3-12 0.9-4.3-1.8-1.8-4.3 0.7-5 0-5-1.7-4.6-3.3-3.1-4.4 1.1-9.8 0.7-3.8-1.3-3-3.8-4.7 0.7-4.8-0.3-4.8-2-4.5-1.2-4.6-0.1 0.2-1-0.1-2.1 0.1-1.1 0.7-2.3 1.2-2.1 6.7-6.1 0.7-1.8-1.7-1-1-0.3-1.7-1.1-2.1-2.2-1.1-1.7-1.7-4.4-0.9-0.6-2-0.3-3.3 0.3-1.2-1.1 1-4.7 2.8-4.1 0.6-1.8 0.4-1.8 0.9-2.5 0.2-2.6-1.2-4.6-0.8-2.3-3.5-0.4-2.7 1.9-4.7 0-0.1-2-0.5-1.9-0.6-0.3-3.1 0.5-1.8 0.7-0.8-0.3-0.7-0.6-1.1-1.7 0.7-1.2 0.8-1 0.3-1.4 0-7.1-3.2-4-4.8-0.5-4.2-1.5-0.6-2.3 0.1-2.7-1-2.1-1.9-1.3-2-1.1-1.8-1.4-0.7-2.7 0.1-3-0.3-2-1.8-0.8-4.9-1.3-4.5-0.7-4.5 0.9-3.8 2-2.3 3.4-1.3 3.8-0.9 1.5-1.3-0.8-0.3-1 0-1.2-0.6-1.3-3.8-6.9-0.9-2.3-1.6-1.8-6-0.1-4-2.5-0.2-5 0.6-5.2 1.1-2 8.1-1.3 5.4-0.1 5 0.6 11.7-0.5 1.4 1.4 1.3 4 2.1 3.5 1.7 1.1 1.9 0.8 1.8-0.1 2.3-1.4 1 1.2 1.1 1 3 0.3 4.1-1 3.6-1.9 3.4-2.7 0.8-1.3 0.6-1.5 0.7-1.1 0.9-0.9 1.3-0.5 0.4-1.2 0.1-0.7 22.1 2.6 2.8 0 4-1.2 1.4-0.1 16.1 1.9 1.6-0.1 0.5-0.2 0.8-0.6 0.9-0.7 0.5-0.6z" id="NGJI" name="Jigawa">
  </path>
  <path d="M183.5 619.1l0.1-0.1 4.5 0.4 1.2-1.4-0.1-2.1-4.2-1.8-2.3 0-1.3-1.5 1.2-0.5 2.5-0.3 3.9-2.8 1.2-0.4 0.8-1 0.2-1-0.7-3.6 0-5.4-1.4-2-1.9 0.9-1.2 1.8-3.3 2-3.9-0.1-1.2-0.2-2.4-0.8-1.1-0.7-1.1-2 0.1-2.3 1.8-5.1 3.8-4 6.8-5 1.4-1.9 1.8-10 2.9-1.5 1.2-1.7 0.5-1.9 2.1-3.6 3.2-2.5 3-0.9 2.8 1.2 3.9 2.5 0.9 0.4 2 0.2 0.8-0.6 0.2-1.6-0.2-1.8 0.3-2-0.1-5.8 0.7-3.6 1.3-3.6 3.3-1.7 3.7-1 0.1-3.1 5.3-1.7 2.8-0.1 8.3 0.6 5.4-0.3 3.8 1.1 1.9 3.8 1.6 5.2 4.3 1.7 7.9-6.7 4.2-9.8 1.4-7.2 1-2.2 3.2-3.6 2-1.1 1-1.3 0.7-1.4 2-1.1 2.1 0.9 1.8-0.7 1.4-2.2 6.1-1.1 2.3 1.1-0.5 3 3.8 5.9 4.7 5.1-1.4 2.4-1.7 2-0.9 0.4-2.1 0.5-1 0.9-0.7 2.7 2.2 1.5 0.4 1.3-0.8 1.6 0.3 2.4 0.5 1.1 0.2 1.7-0.7 2.5-1 1.1-1.3 0.8-1.8 1.6-1.7 1.9-0.1 1 0.3 0.8-3.5 8-0.5 1.8-1 1.3-2 2.1-1 2.8-0.2 2.7 1.1 2.3 0.3 0.9-0.3 0.7-0.4 0.2-0.3 0.5 0 1.2-1.7 0.4-0.7 1.9-0.9 4.9-0.4 1-1 1.8-0.9 0.6-1.2 0.4-2.4-0.5-1-0.9-2.2-0.2-3.7 3-1.7 0.3-2-5 0.8-2.2 1.2-1.9-3.4-2.7-21.3-0.1-1.2 0.6-0.9 1 0 2-1.3 1.6-0.9 2.1-2.7 2.6-2.4 2.9-0.8 1.6-0.3 2.5-0.3 1.1 0 2.3 0.4 0.7 0.6 0.3 1.3 2.1 1.4 4-1.8 4-1.3 1.9-0.5 2.3-1.1 1.8-1.9 1.1-1.7 0.5-1 1.6-0.4 2.3-0.4 0.9-0.5 0.5-0.2 0.6 0.4 0.7 1.6 0.9 1.8 1.6 1.6 1.9 0.2 1 0.7 0.3 0.9 0 0.9 0.4 0.9 0.6 1.4 2.2-0.1 2.4-8.4 20.6-0.1 0.1-8.8-11.5-1.6-1.5-3-1.3-1.3-1.5-2-3.1-2.6-2.7-2.3-1.9-5.7-3.6-2.5-1.6-4.7-4.4-2.9-1.8-1.2-0.6z" id="NGON" name="Ondo">
  </path>
  <path d="M222.1 654.6l0.1-0.1 8.4-20.6 5.3 2.6 3.6 4.1-0.7 5 0.6 4 1.5 1.1 1.4-0.5 4.3-3.8-0.4-2.5 0.8-1.8 4.9 0.2 2.3-0.4 2.8 0.2 2.9 2.1 1.4 0.6 0.8 0.1 0.7-0.6 0.5-1 4.2-2.6 4.7-0.2 8.8 4.8 4.1 4.5 2.6 1.4 2.1 1.6-0.3 2.8-1.7 2.7 0.4 0.9 0.8 0.7 0.4 0.9-0.3 0.9 0.1 1.2 1.3 0.4 1.4 0 7.4-1.6 3.9-2.8 3.1-3.7 4.2-3.2 3.1-3.6 0.9-2.9 0-3-1-0.9-1.4-0.3-4.5-4.2-2.4-3.8-0.9-3-0.2-2.6-2.4-4.2 0.2-2.8 1.1-2.1 1.8-1.7 2.5 0.3 2 2 1.5 2.4 2.1 0.1 3.2-4 2-1.2 7.1-3 9.2-5.6 4.6-1.9 2.8-0.1 2.6 0.5 2.2-0.7 2.3-2.9 0 2.4 0.4 2.2 2.1 7.5 0.4 4.2 1.4 3.7 0.3 3 0.3 1 1 1.9 0.4 1.1 0.1 1-0.2 3.4-0.3 1-0.5 0.6-0.8 0.4-1 0.4-1.5 1.2-0.3 1.7 0.3 4-1.1 3.9 0 0.7 0.1 1.3-0.1 0.7-0.3 0.6-3 4.1-1.5 2.6-0.8 1.9-0.5 2.1-0.2 3.2-2 8.8-1.5 3.5-0.3 1.6-0.3 2.1-0.4 1-0.6 0.8-1.4 1.6-0.5 0.3-1.3 0.5-0.5 0.4-0.7 0.8-0.5 0.3 0.1 0.2 1.3 3.3 0.2 1.6-1.2 0.7-9.8 1.5-1.3 0.4-1.4 1.1-0.7 0.6-0.5 0.7-0.4 0.8-0.2 0.9 0 1.1-0.2 0.4-1.3 0.4-3.2 0-1.5 0.5-0.6 1.8 0.2 0.8 0.7 1.2 0.2 0.6-0.4 0.8-0.9 0.5-1.8 0.5-0.6 0.5-0.4 0.5-0.6 0.4-1 0.2-0.9-0.1-1-0.3-0.8-0.1-0.7 0.3-2.2 3-1.2 0.6-2.1-0.2-1.5-0.7-1.6-1-2.6-2.3-1 0.5-2.5 3.6-2.1 1.1-2.3 0.4-1.4-0.3-1.4 0.5-1.4 0.6-1.4 0.5-2.6 1.8-2.8 1.4-1.1 0-1.3 0.2-1.9-0.3-1.4-1.1-3.9-2.1-3.5-1.2-2.9-1.9-2-1.7-0.5-1.2 1.6 0.2 1.6 0.4-0.6-1-2.1-2.2-0.7-0.5-0.3 0.3 0 1.4-0.2 0.3-0.7 0.1-0.6 0.1-1.1 0.4-1-0.5-1.8 0.3-0.8-0.4-0.1-0.6 0.1-2.7-0.3-3.5-1.6-6.9 0.4-1 1.8-0.4 5-0.1 1.4-0.4 0.2 0.7 0.2 0.5 0.7 0.9 0.6-0.4 0.5-1.2 0.5-0.5 0.4-0.3 2.6-1 1.3-0.3 1.1 0.1 0.8 0.5 0.5 0-0.6-0.9-1.8-1.6-0.7-1.2-0.3-1-0.1-1.3 0.2-1.2 0.4-0.9 1-0.6 1.2-0.3 2.5 0.1 0.9-0.4 0.9-1 1.1-1.7-1.2 0.5-1 0.9-1.1 0.6-1.4-0.5-0.2 0.4-0.5 0.3-0.4 0.4-1.7-0.4-1.8 0.9-1.1 1.7 0.5 2-0.9 1.8-1 1.2-1.2 0.3-1.6-0.7-0.4-0.5-0.2-0.5-0.3-0.4-0.9-0.1-0.4 0.4 0.2 1 0.5 1 0.5 0.7-4.4-0.3-8.6-2.8-0.3-0.4-0.4-0.9-0.2-0.4-2.4-2.2-1.6-1.1-0.6-1.6-0.1-1.6 0.2-0.8 0.5-0.2 1.2-1.4 0.7-0.4 0.5-0.1 7.5 0.3 2.8 0.4 1.5 0.9 0.6 0 0.7-1.1 1.3-2.7 0.6-0.9 0.9-0.4 1.2 0 1.2 0.4 0.8 0.6 0.2 0.5 0.4 1.7 0.2 0.4 0.8-0.1 0.4-0.2 0.1-0.5 0-0.8-0.6-1.2-1.2-1.3-1.6-1.1-1.3-0.6-1.4 0.1-0.8 0.7-0.9 2.4-0.8 0.7-1.2 0.6-1.4 0.3-1.3-0.1-1.4-0.8-0.6-1.1 0-1.3 1.4-4.1 0.2-1.1-0.1-1.5-0.5 0-2.1 5.7-0.8 1.5-1 1-1.3 0.5-1.8 0.2-0.8 0.2-1.8 1-1.9 0.7-0.4-0.2-1.1-0.7-1.1-1-1.2-1.5-1-1.6-0.7-2.1-0.7-1.1-0.7-1.4-0.3-1.7 0.2-1.6 0.5-1.7 0.7-1.4 0.9-0.6 0.9 0.3 1.5 1.2 0.6 0.2 0.4-0.5-0.2-0.7-0.3-0.8 0.1-0.7 2.4-2.1 6.2-2.3 1.7-2.9-1.6 0.3-2.6 2.3-3 0.9-5.7 3.1-1.1 0.8-3.8 3.5-0.8 0-2.8-6.3-0.4-0.4z" id="NGDE" name="Delta">
  </path>
  <path d="M256.8 709.5l2 1.7 2.9 1.9 3.5 1.2 3.9 2.1 1.4 1.1 1.9 0.3 1.3-0.2 1.1 0 2.8-1.4 2.6-1.8 1.4-0.5 1.4-0.6 1.4-0.5 1.4 0.3 2.3-0.4 2.1-1.1 2.5-3.6 1-0.5 2.6 2.3 1.6 1 1.5 0.7 2.1 0.2 1.2-0.6 2.2-3 0.7-0.3 0.8 0.1 1 0.3 0.9 0.1 1-0.2 0.6-0.4 0.4-0.5 0.6-0.5 1.8-0.5 0.9-0.5 0.4-0.8-0.2-0.6-0.7-1.2-0.2-0.8 0.6-1.8 1.5-0.5 3.2 0 1.3-0.4 0.2-0.4 0-1.1 0.2-0.9 0.4-0.8 0.5-0.7 0.7-0.6 1.4-1.1 1.3-0.4 9.8-1.5 1.2-0.7-0.2-1.6 7 0.6 2.2 2.6 0.3 0.4 0.2 0.3-0.1 0.6-0.2 0.4-0.7 0.6-0.1 0.3-0.4 0.2-1.4 0.3-0.3 0.5-0.2 0.8-0.5 0.8-2.5 3.2-1.9 1.3-1.6 1.6-1.1 2.4-0.4 3.5-0.6 1.6-1.3 0.7-0.5 0.7-0.5 1.6-0.3 1.9 0 1.5 0.2 0.9 0.3 0.8 0.4 0.8 0.6 0.7-1.3 1.4-0.8 1.7-0.2 1.1-1.5 2.3-0.9 2.6 0 3.1 1.7 2.3 1.1 0.5 1.1 0.1 0.6 0.9-0.3 1.4 0.8 2.3 2.3-0.2 6.3-2.3 4.7 2.9 0.6 2.8 1.2 2.5 2.1 1.6 2.5 1.1 0.8 1.2-0.4 0.6-1.2 3.2-0.5 3.4 0.5 2.5-0.3 0.7 0 1.5-0.2 0.9-0.7-1.7-0.2-1-0.2-4.7-0.4-0.9-0.3 0.5-0.4 0.5-0.4 0.3-0.5 0.3 0.4 1.1 0.1 3.5 0.3 1.3 0.9 1.6 0.6 1.5 0.8 2.6 0 0.9-0.5 0.8-0.8 0.3-2.3-0.1-2.2 0.3-0.4-0.5-0.8-2.5-0.3-2.3 0.1-3.5-0.3-2.7-1.1-2-2.3 0.2 2.1 1.7 0.7 2.7-0.2 3.1-1 2.9-0.2 2.5-3.7 0.9-4.4-0.4-2.1-1.4-1 0.2-1 0.3 0.5 1.4-1.2 0.5-1.9 0.1-1.4 0.4-1.5 0.6-3.4 0.1-1.5 0.5-1.8-2.1 1.5-3.2 5-5.6-1-0.1-0.6-0.1-0.5 0-0.6 0.2-2.6 3.1-0.3-4.1-1.3-3.7-0.4 0-0.1 1.5 0.1 2 0.4 1.9 0.6 1.3-0.8-0.7-0.6-0.8-0.9-0.7-1.4-0.3 0.9 1.8 0.8 1.1 0.5 1.3-0.1 2-0.5 1.5-0.5 1.1-0.5 0.4-0.6 0.2-0.5 0.4 0 1.1 0.6-0.3 0.5 0 1 0.3-0.4 0.7-2.1 0.7-2.8 0.2-1.9-0.5-0.3 0.3-0.5 0.4-0.3 0.3-1.2-0.5-0.7-0.7-0.2-1.1 0-1.4 0.3-1.2 1-1.8 0.2-1.1-0.3 0.2-0.8 0.2-0.4 0.1 0-1.2 0.3-2.1-0.8 0-0.8-0.2-0.9-0.4-0.9 0.3-0.3 0.7 0.2 1.2 0.3 1 0.3 0.7-0.3 1 0.4 0.8 0.6 0.9 0.4 1.2-0.3 1.6-0.5 0-0.9-0.8-1.2-0.5-1.7-0.1-0.6-0.4-0.1-2.7 0.5-0.1 0.1-0.2-1-1.5-0.1-0.2-0.1-1.3 0.1-1.3-0.4 0-0.6 2.6-0.4-0.4-1.2-0.7 1.2 2.6 0.2 1.3-0.9 0.8-1.1-0.1-1.2-0.7-0.9-0.9-0.6-0.4-1.6-0.5-1.7-1.4-0.9-1.9 0.8-1.9-0.8-0.1-0.6 0.3-0.2 0.5 0.1 0.9-0.5 0-1.3-1.3-3-1.8-0.9-1.1 0.5 0.3 1 0.4 0.5 0.4-0.6-1-0.9-0.5-1-0.2-1.1-0.4-1.6-1.8-0.6-0.8-2-2.1-0.5-0.3-7-6.6-2.1-2.9-0.8-3.3 0.3 0.1 0.3 0.1 0.5 0.4 0-1.5-3.3-2-0.9-1.5-0.3-1.2-1.9-3.3-0.9-0.9 2.6 1.5-0.6-1.8-2.5-2.7-2.1-5.9-0.6-3.6-0.4-1.1-1-2-0.4-1.2-0.2-1.2-0.2-0.6-0.6-0.6-0.5-0.8-0.3-1.2 0.4-0.9 0.9-0.4 1.2 0.1 1.2 0.4 0.8 0.7 1.4 1.9 0.9 0.6-1.1-3z" id="NGBY" name="Bayelsa">
  </path>
  <path d="M335 689.8l-1.3-3.3-0.1-0.2 0.5-0.3 0.7-0.8 0.5-0.4 1.3-0.5 0.5-0.3 1.4-1.6 0.6-0.8 0.4-1 0.3-2.1 0.3-1.6 1.5-3.5 2-8.8 2.2 2.1 2.5 0.1-0.8 2.7-2.4 12 0.5 1.7 2.7 0.2 2.8-0.7 3.1 3.3-0.6 5.4-1.1 2.4 0.1 2.7 0.7 0.8 1.8 1.3 0.5 1 8 5.2 10.7 0.8 9.5-1 4 1.2 2.4-0.3 2.3-0.6 1.5 2.8-0.4 3.7-7.8 12 1 5.9 3.1 0.9 6.2-1.2 3-0.1 2.9 1.2 4 0.1 5 3.4 1 1.9 1.3 2.1 0.7 2.9-0.1 1.8-0.5 0.3-0.5 0.7-0.3 0.7 0.2 1.1 0.2 0.9 0 0.7-0.6 0.9 0 0.5 1 1.3 0.3 0.6-0.3 0.2-1.2 1.4-0.7 0.6-0.9 0.5-0.9 0-0.7-0.6-0.5 0-0.7 1.5-1.6-0.1-2.6-1.4-1.9-0.1-2-0.4-1.7-0.8-0.9-1.3-0.5 0.3-0.5 0.1-1.4 0.1-0.2 0.2-0.1 0.6-0.3 0.5-0.7 0.3 0 0.5 0.5 0.3 0.5 0.2-0.4 0.5 1 0.4 1.2 1 2.1 0.4 0.4 0.6-0.1 0.6-0.5 0.7-3.4 0.5-0.3-0.4-1.7-2.5-4.8-5.2-0.7-1.6 0-2-0.2-0.7-0.5 0-1.1 0.5-1.6 0-0.3-0.1-0.6-0.7-1.4-1.1-0.6-0.8-1.2-3.5-0.8-1.1-0.1 0.7-0.4 0.7-0.4 0.6-0.2 0 0.2 0.8 0.4 0.1 0.5 0.1 0.5 0.6 0.7 2.6 0.8 1.1 1.3 0.5 2.4 1.1 1.7 2.6 0.3 2.5-2 1 1 0.7 1.1 1.1 0.7 1.3-0.5 1.4-2.1 2.3-1.2 0.6-1.6-0.6-0.1 1.1 0.1 0.4-1.4-0.6-1.1-0.9-0.4-1.1 0.3-1.5-1 0.9-0.2 1.3 0.4 1.3 0.8 1.2-2.1 0.5-0.5 0-0.9-1.8-0.5-1.9-0.2-3.8-1.2-2.1-0.4-1.3 0.9-0.6 0.3-0.6 0.4-1.4 0.2-1.6-0.2-1 0.4 0.2 0.7 0.1 0.5 0.1-0.5-0.8-1.6-1.7-0.3-0.8-0.4-1.7-0.3-0.7-1.4 2-0.5 0-0.3-1.3-0.9-1.7-0.4 1.2 0.2 1.8-0.3 0.6 0.8 1.3 1.7 4.5-0.8 0-0.5-0.1-0.4-0.3-0.3-0.7-0.3 0.3-0.7 0.3-0.7-1.5-0.8-1.3-2.2-2.5 0.2 1.3 0.3 1 1.1 1.9 0.6 0.8 0.3 0.4 0.1 0.6-0.3 0.7-0.5 0.4-0.2 0.4 0.5 0.9 0.8-1.2 1.4-0.4 1.3 0.4 0.7 0.9-0.8 5.3 0.2 1.8 2.7 5.3 0.9 1.2-0.1 0.8-0.4 0.7-0.8 0.3-1-0.1-0.8-0.4-1.4-0.6 0.1 0.3 0.1 0.4 0.2 0.4-1.6-0.5-1.7-0.8-1.7-0.3-1.8 0.6-0.8-0.9-0.6-1.2-0.1-1.4 0.5-1.3-1.3-0.6-1.2-2-0.8-2.4-0.3-2 0.1-1.3 0.4-0.8 0.5-0.5 0.6-0.8 0.3-0.7 0.3-1.2-0.2-1.2-1.2-0.5-2-1.1-1.3-2.5-1.2-4.7-0.2-1.9 0.3-1 0.7-1 0.6-1-0.2-0.6-0.7-0.1-1 0.9-0.7-0.9-0.2-0.5-0.1-0.7-0.7 0.3-0.6 0.1-0.7-0.1-0.6-0.3 0.3 1.3 0.2 1.3 0.3 1.1 1 0.5 0.7 0.5 0.5 1.4 0.6 2.7 0.3 2.9 0.4 1.3 0.6 0.6 1 0.5 1 1.2 1.4 2.4-1.7 1.5-0.4 0.6-0.1 1.1 1.5 7.4 0.8 2.3 1 1.2-0.2 1.7 1.6 1.4 0.9 1.1-1.8 1-2.4 0.4-3 0.2-2.8-0.2-1.7-1-0.2-1.1 0.2-4.4 0.4-0.6 0.1-0.4-0.2-0.4-0.7-0.5-0.1-0.3 0-2.7 0.2-1.2 1.7-4.6 0.2-0.8-0.1-2.2-1 1.2-0.8-1.2-2.5-1.1-2.1-1.6-1.2-2.5-0.6-2.8-4.7-2.9-6.3 2.3-2.3 0.2-0.8-2.3 0.3-1.4-0.6-0.9-1.1-0.1-1.1-0.5-1.7-2.3 0-3.1 0.9-2.6 1.5-2.3 0.2-1.1 0.8-1.7 1.3-1.4-0.6-0.7-0.4-0.8-0.3-0.8-0.2-0.9 0-1.5 0.3-1.9 0.5-1.6 0.5-0.7 1.3-0.7 0.6-1.6 0.4-3.5 1.1-2.4 1.6-1.6 1.9-1.3 2.5-3.2 0.5-0.8 0.2-0.8 0.3-0.5 1.4-0.3 0.4-0.2 0.1-0.3 0.7-0.6 0.2-0.4 0.1-0.6-0.2-0.3-0.3-0.4-2.2-2.6-7-0.6z m79.4 69.1l2.5-0.3 0.8 0.3-0.4 1-0.7 0.9-1.3 0.3-2.9-0.1-1.2 0.1-3.7 1.4-1.3 0.1-5.6-0.3-1.2-0.6-0.4-1 0.7-1.4 0.7-0.3 3.7-1.2 0.9 0.4 2.7 1.3 1.3 0.4 1.4-0.2 2.7-0.7 1.3-0.1z m-20.2-0.6l3.5-0.3 0.9 0.3-0.9 0.8-0.5 0.9-0.1 1.1 0 1.1-0.3 1.2-0.8 0.8-1 0.6-1.1 0.5-6.7 1.4-2.6-0.3-0.7-0.9 0.7-1.4 2.4-2.6 1.8-2.6 1.4-1.7 0.3-0.7 0.3-1.3 1.1 0.6 1.1 2.1 1.2 0.4z" id="NGRI" name="Rivers">
  </path>
  <path d="M441.4 691.9l-2.1 2.4 1.2 3.2 0.9 1.5 1.5 1.1 4.4-0.7 2 0.5 3.4 2.1 1.2 1.4-0.5 9.3 1 4.3 2.1 3.8 2.7 3.8 8.9 9.3 2.9 2.2 0.9 0.1 0.4 0.4 1.1 3.3 1 1.2-0.3 0.5-0.6 1.7-0.1 0.7 0.3 1.1 0.7 0.4 0.9 0.3 0.7 0.6 0.2 1.7-1.2 1.1-1.4 0.9-0.8 1.2-1 2.3-0.7 0.4-0.8 0.1-3.3 0-4.3-0.5-6.5 0-3.1-0.4-1.5 0-2.5 1.3-1.5 0.2-3.3 0-12.9 1.5-0.8-0.4-0.9-0.1-0.9 0.3-0.6 0.8 0.8 0 0.7 0 0.6 0.2 0.5 0.3-1.6 0.4-2.5 0.2-2.2-0.4-1-1-1-0.3-6.8-0.4 0.3-0.4 0.1-0.2 0.2-0.2 0.5-0.3-1-0.3-0.9 0.2-0.6-0.1-0.2-0.9 0.3-0.4 0.5-0.3 0.5-0.5 0.3-0.8-0.2-0.4-1.4-1.7 0.3-0.3 0.3-0.8-1.1-1.3 0.2-1.9 1.4-3.5-0.5 0-0.8 0.6 0.1-1.8-0.7-2.9-1.3-2.1-1-1.9-0.5-3.2-1.7-3 0.3-1.3 0.4-1.3-1-3.7 1.7-2.8 2.5-2.5 0.4-3.4-0.4-3.5 0.3-3.3 1-4.7-0.1-1.5-0.8-1.4 0.1-1.5 3.4-1 3.9 0.6 2.2-1.5 0.5-1.4-0.8-1.4-1.9-0.6 0.1-1 1.8-4.2-0.4-5.2 2-1.4 2.9 0.4 3.7 2.7 2.6 3.9 4.3 2.4 3.9 3.1z" id="NGAK" name="Akwa Ibom">
  </path>
  <path d="M439.9 667.1l1.3 3.5-0.7 4.3 1.8 8 3.6 7-0.9 2.7-3.6-0.7-3.9-3.1-4.3-2.4-2.6-3.9-3.7-2.7-2.9-0.4-2 1.4 0.4 5.2-1.8 4.2-0.1 1 1.9 0.6 0.8 1.4-0.5 1.4-2.2 1.5-3.9-0.6-3.4 1-0.1 1.5 0.8 1.4 0.1 1.5-1 4.7-0.3 3.3 0.4 3.5-0.4 3.4-2.5 2.5-1.7 2.8 1 3.7-0.4 1.3-0.3 1.3 1.7 3 0.5 3.2-5-3.4-4-0.1-2.9-1.2-3 0.1-6.2 1.2-3.1-0.9-1-5.9 7.8-12 0.4-3.7-1.5-2.8 5.5-16.1 2.9-3.2 0.9-1.9 0.7-2 1-1.6 0.6-1.8 0-2-0.3-2.1 0-2.1-0.6-2-0.8-1.4 0.7-1.1 0.7-3.5-1-8.5-2.9-2.6-2.1-0.5-3.8-1.9-1.6-1.4 3.5-4.5 5.1-2.7 0.5 0.3 0.2 0.3 3.6-0.6 3.6-0.1 5 3.7 0.1 4.5-0.7 4.9 4.5 2.2 11 0.2 4.1 1.9 0.5 2.6 1.3 2.3 2.4 1.9 2.8 1z" id="NGAB" name="Abia">
  </path>
  <path d="M436.1 595.5l2.5 5.3 5.2 3.2 3.4-4.6 0.7-6.4 1.2-2.5 3.2-0.4 3 0 2.9-0.7 2.9-3.8 1.7-0.4 1.7 0.1 0.9-1.3 0.3-0.8 1.5 0.2 0.8 1.2 0.6 3 1 2.5 1.7 2 1.1 4.2 2.9 3.3 1 0.8 1.1 0.6 0.5 0.8 0.3 0.8 1.3 1.5 0.3 2.4 0.8 2 1.6 2.1 0.3 2.4-4.8 2.6-0.5 2.6 1.4 2.2-0.6 5.2-4.3 4.3-1.7 2.3-1.5 2.3-1.4 5.7-1.2 2-2.2-1-2 0-1 1.6-1.2 1.5-3.5 1.7-1.4 1.3-1.9 0.1-1.5-3.4-2.9-0.9-3 1-0.9 1.9 1.2 2.4-0.9 3.4-2.7 4.1-1 1.1-0.1 1.8 0.2 1.7-1 1.5-1.2 1.5-0.7 1.7-0.3 1.9-2.8-1-2.4-1.9-1.3-2.3-0.5-2.6-4.1-1.9-11-0.2-4.5-2.2 0.7-4.9-0.1-4.5 3.7-1.2 2 1 1.6 1.1 2.7 2.5 2.1-1-0.9-4 0.5-3.8 1.8-2.1 1.5-2.2-0.1-2.3-0.6-2.4-0.1-2.3-0.9-3.2-0.1-1.1-1.3-2 3.3-10.1 0-5.4-3-9.8 2.5-1.5 2.5 0.2 5-0.5z" id="NGEB" name="Ebonyi">
  </path>
  <path d="M343.6 664.6l0.2-3.2 0.5-2.1 0.8-1.9 1.5-2.6 3-4.1 0.3-0.6 0.1-0.7-0.1-1.3 0-0.7 1.1-3.9-0.3-4 0.3-1.7 1.5-1.2 1-0.4 0.8-0.4 0.5-0.6 0.3-1 0.2-3.4-0.1-1-0.4-1.1-1-1.9-0.3-1-0.3-3-1.4-3.7-0.4-4.2-2.1-7.5-0.4-2.2 0-2.4 0.7-0.2 1.7 0.1 2 0.4 1.9-0.3 2.5-2.4 1.7-7.5 1.8-3.6 5.1-4.9 0.7 2.1-0.1 2.5 1 0.4 4-0.1 4.4 1.8 2.4 0.6 2.3 1-0.3 5.1-4.2 4.6-2.1 5.7 0.7 1.9 1.1 0.5 2.6 0.5 1.1 0.6 1.6 2.2 2.4 5.5 0.4 0.7 0.2 0.8-0.5 0.6-0.5 0.2 0 1.5-0.1 1.3-0.3 1 0.6 0.9 1.2-0.2 1.1-0.9 1.2 0.8 0.3 1.8 1.8 1.4-0.4 2.6 0.9 2.2 1.3 2.1 0.8 2.4 1.6 1.9 2.2 0.3 2-0.6 0.8 0.1 1.3 0.8 0.4 0.8 0.8 0.2-5.1 2.7-3.5 4.5-3.2 0.6-3.1 1.1-6.8-1.5-3.5 0.4-3.4 0.8-2.9 1.8-1 3.2-3 6.1-3 0.8-3.2-1.3-5.9 1.6-5.1 4-2.5-0.1-2.2-2.1z" id="NGAN" name="Anambra">
  </path>
  <path d="M230.6 633.9l0.1-2.4-1.4-2.2-0.9-0.6-0.9-0.4-0.9 0-0.7-0.3-0.2-1-1.6-1.9-1.8-1.6-1.6-0.9-0.4-0.7 0.2-0.6 0.5-0.5 0.4-0.9 0.4-2.3 1-1.6 1.7-0.5 1.9-1.1 1.1-1.8 0.5-2.3 1.3-1.9 1.8-4-1.4-4-1.3-2.1-0.6-0.3-0.4-0.7 0-2.3 0.3-1.1 0.3-2.5 0.8-1.6 2.4-2.9 2.7-2.6 0.9-2.1 1.3-1.6 0-2 0.9-1 1.2-0.6 21.3 0.1 3.4 2.7-1.2 1.9-0.8 2.2 2 5 1.7-0.3 3.7-3 2.2 0.2 1 0.9 2.4 0.5 1.2-0.4 0.9-0.6 1-1.8 0.4-1 0.9-4.9 0.7-1.9 1.7-0.4 0-1.2 0.3-0.5 0.4-0.2 0.3-0.7-0.3-0.9-1.1-2.3 0.2-2.7 1-2.8 2-2.1 1-1.3 0.5-1.8 3.5-8-0.3-0.8 0.1-1 1.7-1.9 1.8-1.6 1.3-0.8 1-1.1 0.7-2.5-0.2-1.7-0.5-1.1-0.3-2.4 0.8-1.6-0.4-1.3-2.2-1.5 0.7-2.7 1-0.9 2.1-0.5 0.9-0.4 1.7-2 1.4-2.4 1.3 0.7 1.5-0.3 1.3 0.8-0.3 1.5 2.5 0.8 0.6 1.8-0.9 3.3 1.9 2.6 3.5-0.1 3.5-1.4 1.5-1 1.5-0.3 0.8 1.3 1.1 1 2.5 1.7 2.2 2.5 1.7 0.1 2.9-0.7 1.6 0.2 1.9 1.7 1.7 4.2 1 1.4 0.3 1.4 1 1.5 3.8-0.7 3.1-1.3 2-0.2 1.1 0.9 0.9 1.1 0.2 1.3 1 0.6 2 0.6 0.2 0.6 1.2 2.7 0.2 0.7 0.1 1.4-0.3 1.4-1 2.8-0.3 4-0.7 1.8 0 0.8 0 3.3-0.2 0.7-1.9 4.3-0.9 2.9 0 1.3 0.4 4-0.3 9.8 0.3 3.2 1.5 4.4 0.1 1.1 0 1.1-2.3 2.9-2.2 0.7-2.6-0.5-2.8 0.1-4.6 1.9-9.2 5.6-7.1 3-2 1.2-3.2 4-2.1-0.1-1.5-2.4-2-2-2.5-0.3-1.8 1.7-1.1 2.1-0.2 2.8 2.4 4.2 0.2 2.6 0.9 3 2.4 3.8 4.5 4.2 1.4 0.3 1 0.9 0 3-0.9 2.9-3.1 3.6-4.2 3.2-3.1 3.7-3.9 2.8-7.4 1.6-1.4 0-1.3-0.4-0.1-1.2 0.3-0.9-0.4-0.9-0.8-0.7-0.4-0.9 1.7-2.7 0.3-2.8-2.1-1.6-2.6-1.4-4.1-4.5-8.8-4.8-4.7 0.2-4.2 2.6-0.5 1-0.7 0.6-0.8-0.1-1.4-0.6-2.9-2.1-2.8-0.2-2.3 0.4-4.9-0.2-0.8 1.8 0.4 2.5-4.3 3.8-1.4 0.5-1.5-1.1-0.6-4 0.7-5-3.6-4.1-5.3-2.6z" id="NGED" name="Edo">
  </path>
  <path d="M681.7 369.3l-5.3 0-5.2-1.3-5 0.9-9.3 4.3-9.6 0.3-4.1 2.7-2.4-1-12.6-7.9-37.1-17.3-2.4 0.5-1.1 0.7-1 1.8 2.9 4.2 1 2.7-0.7 2.5-4.9 1.9-2 1.7-2.2 4.7-2.7 1.2-3 0.6-12 0.6-10.7-2-4.7-1.5-2.6-4.6-3.4-4-2.7-0.9-1.8-1.8 0.3-2.4 1-2.2 1.4-2.1 0.5-2.3-0.3-6.3-1.6-5.2-4.9-1.8-8.7 1.6-2.8-1.9 0.1-12.3-0.4-3.8-1.5-4.2-2.7-3.4-4.5-1.1-4.3 0.7-1.6-1.9-1.8-1.6-2.3-1.3-1-2 2.5-4.6 0.9-5 3.4-3.8 2.2-5.1-0.6-5.3-3.4-4.1-2.2-5.9-0.2-6.5 0.5-5.8 2.3-4.8 4.5-0.3 2.7-1.3 2-2.2 3-4.4 7.8-8.2 5-2.3 1.2 0.8 1.3 0.6 1.4-0.3 5.7-2.3 4.6 0.1 4.5 1.2 4.8 2 4.8 0.3 4.7-0.7 3 3.8 3.8 1.3 9.8-0.7 4.4-1.1 3.3 3.1 1.7 4.6 0 5-0.7 5 1.8 4.3 4.3 1.8 12-0.9 2.6 1.3 2.9 1.1 2.1-1.3-0.8-2.8 1.5-5.2 8.4-3.3 2.6-1.6 1.8-2.1 0.4-2.5-5.5-1.8-6.4-0.3-12.1-2.3-5.5-2.2-7.3-9.7-3.1-5.5-1.3 0.4-2.5 0-1.5-2.1 0.3-2.5 2.5-4.8-0.1-2.6-1.1-5.5-1.2-2.6-2.6-0.6-2.7 0.3-4.7 1.3-3.2-2.2 1.6-5.7 4.1-3.7 6.4-0.5 2.5-1.2 2.5-1.6 23.1-8.9 1.2-2.6-0.7-3.2 0.5-2.5 5.5-15.5 0.7-3.4 1.1-3.3 1.7-1.7 2.4-0.9 5.7-1 2.3 1.5 4 1 10-6.7 5.2 3.6 4.3 4.2 1 2.9 1.2 6.2 0.1 3.1 0.4 2.7 1.6 2.5 1.4 3 0.5 3.3 0.1 5.4 2.3 12.4 9.1 22.6 0.4 6.5-2.6 11.9 2 2.7 3.7 0.5-1.6 1.2-1.2 1.7-1.8 2-7.1 4.1-3.7 5-2.4 1.9-5.8 1.8-2.2 1.9-2.3 5.7-2.6 9.1-1.2 2.9-3.9 5.6-0.3 2.1 8.1 3.5 2.4 5.4 0.8 6 5.4 2.6 4.9 3.1 1.6 4.6-0.2 10.7 0.3 2.3-0.2 2.2-8.6 4.4-0.4 2.6 3.1 4.4 15.6 11.7 2.3 5 0.5 5 1.2 4.8 2.2 4.4 1.7 2.1-0.5 1.9z" id="NGBA" name="Bauchi">
  </path>
  <path d="M643.2 376.2l1.6 3.7 0.5 4-0.5 4.9 0.8 5.8 0.6 2.2 1.3 2.1 2.2 7.3 0 2.3-0.6 2.3 1 4.8 0.1 2.9-2.6 5-12 5.9-17.5 4.3-3.7 4.4-1.7 2.7-4 4.8-2.1 1.9-5.4 3-5 3.6-4.4 4.5-4.9 3.7-5.5 1.6-5.7 0.4-4.1-0.3-2.8-4-4.1-2.6-8.8-3.8-4.8-0.1-4.8 1.4-6.9 1.3-7.2-0.1-4.6-1.3-6.3-3.3-1.7-3.2 0.5-3.7-0.6-3.1-1.8-2.6-1.5-3.7 1.3-3.2 1.9-2.4 1.8-2.7 2.8-0.9 1.8-1.7 3.2-4.4 1.1-2.6 0.4-2.2-1.4-1.8-2-1.3-2.4 0.6-1.2 0.5-1.3 0.2-5.1 0.1-5-1-3.6-3.7-1.2-5.2-3.7-2.8-4.4-2.1 1.6-4.4 0.3-4.7-2.9-4.1-3.6-3.8-3-4.5 0-10.9 2.1-1.6 0.2-1.4 0-1.3 3.1-4.3-0.6-2.6 0.4-3 0-5.9 3-10.1-2-5.8 1.4-5.8 3.8-4.3 2.7-1.3 1.9-2.4 0.4-2.6 0.7-2.2 4.3-0.7 4.5 1.1 2.7 3.4 1.5 4.2 0.4 3.8-0.1 12.3 2.8 1.9 8.7-1.6 4.9 1.8 1.6 5.2 0.3 6.3-0.5 2.3-1.4 2.1-1 2.2-0.3 2.4 1.8 1.8 2.7 0.9 3.4 4 2.6 4.6 4.7 1.5 10.7 2 12-0.6 3-0.6 2.7-1.2 2.2-4.7 2-1.7 4.9-1.9 0.7-2.5-1-2.7-2.9-4.2 1-1.8 1.1-0.7 2.4-0.5 37.1 17.3 12.6 7.9 2.4 1z" id="NGPL" name="Plateau">
  </path>
  <path d="M571.6 464l-2.1 3.3-3.1 2-2.1 0.1-2.1-0.3-2.3-0.7-2.2-0.4-1.7-0.9-3.8-1.3-1.8 0.8-1.3 1.7-0.8 2-0.3 2.4 4 5.1 0.3 3.9-0.2 1.3 0.6 1.4 0.3 2.1-1.6 1.3-11 7.4-2.6 2.2-14.4-10.8 0 0.5-2.8 0.2-8.3-0.3-5.5-1.2-15.3-5.1-10 1.1-4.2 3.6-1.3 5.4 1.8 5.5 3.6 7.9 0.5 2.6-1 1.3-0.6-0.1-0.9-0.3-0.9-0.5-1.8-1.4-3.6-2-1.7-1.9-2.2-0.6-2.4-0.3-2.4-0.7-4.1-2.1-2-0.7-6.4-1.1-1.3-0.5-3.8-2.3-2.6-0.7-5.4-0.6-2.6-0.6-3.6-1.3-4.9-0.5-3.8-1-1-0.2-1.2-0.1-10.7 1-13.4-1.1-2.5 0.2-15.3 5.2-3.9 2.4-0.1 0.4-0.5 0.3-1.5 1.3-2.6 1.6-1.8 0.8-0.6-0.2 0.1-3.2 0.9-3.1 1.3-2.1 1-2.4 1.1-11.3-0.3-5-3.6-6.5 1.8-4.9 0.7-2.6 10.9-1.7 10.7-2.9 9.7-4.9 3.4-3.7 2.6-4.3 3.3-9.1 3.5-15.5-0.2-7.5 0.2-4.8 1.7-8.2 1.4-2.5 0.9-0.3 0.9-0.6 0.2-1.4-0.2-1.6 2.2-1 1.1 2 1.8 1 2.4-0.2 1.9 1.5 1.3 0.2 1.2 0 2.6 1.1 2.6-1.1 2.9-5.4 4.7-0.8 2.4 2.3 0.7 1.8 0 1.9 2.4 2 3 1.8 0.8 9 2 7.4 6-3.3 4.3-6.2 2.1-1.9 2.4 1 6.8 1.9 3.1 3.9 1.5 1.5 1 1.7 1.8 1.8 3-0.3 3.2-3.3 2.4-4.3 2-4.6 2.8-3.2 4.4 2.1 3.7 2.8 1.2 5.2 3.6 3.7 5 1 5.1-0.1 1.3-0.2 1.2-0.5 2.4-0.6 2 1.3 1.4 1.8-0.4 2.2-1.1 2.6-3.2 4.4-1.8 1.7-2.8 0.9-1.8 2.7-1.9 2.4-1.3 3.2 1.5 3.7 1.8 2.6 0.6 3.1-0.5 3.7 1.7 3.2 6.3 3.3 4.6 1.3 7.2 0.1 6.9-1.3 4.8-1.4 4.8 0.1 8.8 3.8 4.1 2.6 2.8 4z" id="NGNA" name="Nassarawa">
  </path>
  <path d="M729.6 291.7l0.9 6.7-5.6 9.1-0.1 3.4 1.5 3.4 2.4 2.9 2.9 2 3.3 1.3 2.7 1.9 5.1 8.2 5.4 3.4-0.8 6.7 0.4 10.2-1.1 3.2-2.8 2.3-14.1 8.4-6.4 2.9-7 1.1-26.6 1.1-8-0.6 0.5-1.9-1.7-2.1-2.2-4.4-1.2-4.8-0.5-5-2.3-5-15.6-11.7-3.1-4.4 0.4-2.6 8.6-4.4 0.2-2.2-0.3-2.3 0.2-10.7-1.6-4.6-4.9-3.1-5.4-2.6-0.8-6-2.4-5.4-8.1-3.5 0.3-2.1 3.9-5.6 1.2-2.9 2.6-9.1 2.3-5.7 2.2-1.9 5.8-1.8 2.4-1.9 3.7-5 7.1-4.1 1.8-2 1.2-1.7 1.6-1.2 10.5-2.7 10.4 5.1 4.8 3.7 4.2 4.5 3.7 5 7.9 8.1 1.6 2 0.5 2.6-1 17.7 0.6 5.6 0.6 2.3 5.4 0.5 2.8-0.3z" id="NGGO" name="Gombe">
  </path>
  <path d="M410.8 561.6l0.8 3.1 2.9 6.1 2.1 2.6 2.5 2.4 2.9 2 2.8 1.4 3.1-0.3 2.2-1.7 2.8-0.7 3.1 1.5 1.9 3 0.9 3.7-0.1 3.7-2.6 7.1-5 0.5-2.5-0.2-2.5 1.5 3 9.8 0 5.4-3.3 10.1 1.3 2 0.1 1.1 0.9 3.2 0.1 2.3 0.6 2.4 0.1 2.3-1.5 2.2-1.8 2.1-0.5 3.8 0.9 4-2.1 1-2.7-2.5-1.6-1.1-2-1-3.7 1.2-5-3.7-3.6 0.1-3.6 0.6-0.2-0.3-0.5-0.3-0.8-0.2-0.4-0.8-1.3-0.8-0.8-0.1-2 0.6-2.2-0.3-1.6-1.9-0.8-2.4-1.3-2.1-0.9-2.2 0.4-2.6-1.8-1.4-0.3-1.8-1.2-0.8-1.1 0.9-1.2 0.2-0.6-0.9 0.3-1 0.1-1.3 0-1.5 0.5-0.2 0.5-0.6-0.2-0.8-0.4-0.7-2.4-5.5-1.6-2.2-1.1-0.6-2.6-0.5-1.1-0.5-0.7-1.9 2.1-5.7 4.2-4.6 0.3-5.1-2.3-1-2.4-0.6-4.4-1.8-4 0.1-1-0.4 0.1-2.5-0.7-2.1 2-4 2.6-1.7 0.1 0.7 0.1 0.6 0.3 1.1 0.5 0.5 1.2 1.8 1.9 0.8 3.4-2.6 2.8-3.5 6.4-4.4 3.7-3.5 4.4-5.7 1.4-1.2 2.3-0.9 2.5-1.9 2.7-1.4 3.7 0.2 2.5 2.3z" id="NGEN" name="Enugu">
  </path>
  <path d="M314 435l3.4-0.7 1.3 0.2 0.5 0.4 2.8 1.9 1.6 0.3 1.2 0.6 0.9 1 1.9 3.2 0.1 1.4 0.1 0.6 1.2 2.4 0.2 0.6 0.4 0.1 0.3 0.7 0.1 0.7 0.2 2.2 1 3.7 1.7 3.5 0.6 0.3 7.5 5.7 0.9 1 3 4.8 2.8 3.1 1 0.4 0 0.5 1.1 0.9 0.3 0.5 1.3-1.3 0.5-2 0.8-1.9 1-0.8 1 0.6 0.4-1.2-0.2-1.7 1.2-1.2 1.6-0.6 2.2-2.1 1-3.1 4.7-0.1 2.8 0.3 2.7-0.5 0.7 0-0.7 2.6-1.8 4.9 3.6 6.5 0.3 5-1.1 11.3-1 2.4-1.3 2.1-0.9 3.1-0.1 3.2 0.6 0.2 1.8-0.8 2.6-1.6 1.5-1.3 0.5-0.3 0.1-0.4 3.9-2.4 15.3-5.2 2.5-0.2 13.4 1.1 10.7-1 1.2 0.1 1 0.2-0.4 4.4 0.2 4.1 0.9 3.8 2.3 3.3 2.2 2.3 1.5 2.7 0.3 2.8-0.2 8.8 1.2 9.2 0.9 2.9 2.5 1.4 2.8-0.4 1.9 1.3-1.5 2.7-0.9 2.2-0.2 2.5-1.3 6.1-3.2 5.2-10 5.5-1.2 3-0.2 3.5-2.1 0.6-2.4-1.1-3.3-2.7-2.9-1.4-2.5-2.3-3.7-0.2-2.7 1.4-2.5 1.9-2.3 0.9-1.4 1.2-4.4 5.7-3.7 3.5-6.4 4.4-2.8 3.5-3.4 2.6-1.9-0.8-1.2-1.8-0.5-0.5-0.3-1.1-0.1-0.6-0.1-0.7-2.6 1.7-2 4-5.1 4.9-1.8 3.6-1.7 7.5-2.5 2.4-1.9 0.3-2-0.4-1.7-0.1-0.7 0.2 0-1.1-0.1-1.1-1.5-4.4-0.3-3.2 0.3-9.8-0.4-4 0-1.3 0.9-2.9 1.9-4.3 0.2-0.7 0-3.3 0-0.8 0.7-1.8 0.3-4 1-2.8 0.3-1.4-0.1-1.4-0.2-0.7-1.2-2.7-0.2-0.6-2-0.6-1-0.6-0.2-1.3-0.9-1.1-1.1-0.9-2 0.2-3.1 1.3-3.8 0.7-1-1.5-0.3-1.4-1-1.4-1.7-4.2-1.9-1.7-1.6-0.2-2.9 0.7-1.7-0.1-2.2-2.5-2.5-1.7-1.1-1-0.8-1.3-1.5 0.3-1.5 1-3.5 1.4-3.5 0.1-1.9-2.6 0.9-3.3-0.6-1.8-2.5-0.8 0.3-1.5-1.3-0.8-1.5 0.3-1.3-0.7-4.7-5.1-3.8-5.9 0.5-3-2.3-1.1-6.1 1.1-3.4-1-6-2.9-1.2-1.1-1.1 0.1-2.5-2.3-1.1-3.3 0.6-3.2 2.2-2.8 1.7-1 0.1-1.7-1.1-0.8-1.4-0.2-2.9 0.3-2.7 0.6-2 1.3-1.5-0.6-0.1-3.2 1.5-2.1-0.5-4.6-5.1-3.2-3.1-2.8-0.7-1.4-1.4-1.2-1.1-1.3-2.2-4.4 0.5-2.5 8.7-10.8 3.4-3.1 3 1.2 3.8 3.7 7.6 2.9 7.5 1.8 10.5 0.5 8.3 1.9 2.5-0.5 1.6-1.9 0.7-2.2 1.2-7.9 3.1-10.7 3.2-4.1z" id="NGKO" name="Kogi">
  </path>
  <path d="M188.2 488.3l4.9-0.3 5 0.5 4.2-0.9 2-0.8 2.1-0.5 0.1 0.6 0.5-0.6 4.3-0.4 3-1.2 3.1 0 1.6 2.7 2.3 1.5 4.3-0.6 1.2 0.2-1.8 6.3-2.3 2.1-2.9 1.3-3.5 4.7-0.6 9.2-0.8 3.3 0.4 4 6 16.2-0.1 3.1-3.7 1-3.3 1.7-1.3 3.6-0.7 3.6 0.1 5.8-0.3 2 0.2 1.8-0.2 1.6-0.8 0.6-2-0.2-0.9-0.4-3.9-2.5-2.8-1.2-3 0.9-3.2 2.5-2.1 3.6-0.5 1.9-1.2 1.7-2.9 1.5-1.2-1.5-3.1 0.3-1.4 0.4-1.2 0.6-1.7-0.1-1.6-0.5-2.6 1.5-2.2-0.1-0.4-1.1-0.2-1.3-0.7-1.9-0.9-1.9-2.5-2.1-3.5 0.1-2.9 1.8-3.1 0.4-0.6-3.4-1.6-3.3-5.3 2.6 5.2-27.6-0.5-2.1-1.4-1.9-1.3-2.4-1.6-2.1-2.1-1.3-1.6-1.7 0.1-2.3 1.3-1.9 0.7-2.2 0.4-2.2 0.2-5 1.3-3.5 5.1 1.4 3.9-2.8-0.1-1.7 0.7-0.7 0.8-0.6 1.4-2 1.6-1.7 2.4 0.9 2.1 1.9 2.7 4.5 3.1 0.6 1.6-1.6 2.2-1.6 0.4-0.4 0.5-0.7 0.6-0.6 0.2 0.3 1.3-1.1 1.4-0.9 1.3-0.5 1.7-0.3 0.4-0.4 0.6-1 0.2-2.6-0.6-2.6z" id="NGOS" name="Osun">
  </path>
  <path d="M392.5 704.9l-2.3 0.6-2.4 0.3-4-1.2-9.5 1-10.7-0.8-8-5.2-0.5-1-1.8-1.3-0.7-0.8-0.1-2.7 1.1-2.4 0.6-5.4-3.1-3.3-2.8 0.7-2.7-0.2-0.5-1.7 2.4-12 0.8-2.7 5.1-4 5.9-1.6 3.2 1.3 3-0.8 3-6.1 1-3.2 2.9-1.8 3.4-0.8 3.5-0.4 6.8 1.5 3.1-1.1 3.2-0.6 1.6 1.4 3.8 1.9 2.1 0.5 2.9 2.6 1 8.5-0.7 3.5-0.7 1.1 0.8 1.4 0.6 2 0 2.1 0.3 2.1 0 2-0.6 1.8-1 1.6-0.7 2-0.9 1.9-2.9 3.2-5.5 16.1z" id="NGIM" name="Imo">
  </path>
  <path d="M226.8 488.5l0.8 0.6 0.4 1.3 1.6 0.6 4.7-1.4 5 3.2 3 0.2 1.9 0.4 3.2-0.5 0.6 0.2 0.7-0.2 0.9-1.8 0.5-2.5 1.6-1.9 2.7-0.9 8.1-0.2-1.5 2.1 0.1 3.2 1.5 0.6 2-1.3 2.7-0.6 2.9-0.3 1.4 0.2 1.1 0.8-0.1 1.7-1.7 1-2.2 2.8-0.6 3.2 1.1 3.3 2.5 2.3 1.1-0.1 1.2 1.1 6 2.9 3.4 1-1.4 2.2-1.8 0.7-2.1-0.9-2 1.1-0.7 1.4-1 1.3-2 1.1-3.2 3.6-1 2.2-1.4 7.2-4.2 9.8-7.9 6.7-4.3-1.7-1.6-5.2-1.9-3.8-3.8-1.1-5.4 0.3-8.3-0.6-2.8 0.1-5.3 1.7-6-16.2-0.4-4 0.8-3.3 0.6-9.2 3.5-4.7 2.9-1.3 2.3-2.1 1.8-6.3z" id="NGEK" name="Ekiti">
  </path>
  <path d="M397 391.5l-1.8-0.5-1.9 0.6-0.5-1.2 0.8-2.3 0.2-1.1-1.3-1.7-1-0.6-1.5-2.4 0.6-2.8 4.2-3 0.4-1.5 0.2-1.6 0.8-1.2 1.1-1 1.7-2-0.4-2.4-2.3-1.1-1.1-2 0.6-2.1-1.6-1.4-2.8-0.8-1.5-2 1.7-1.3 2.3-0.2 2-1.6 0.1-2.8-1.4-12.3-3.7-2.6-11.2 0.2-5.6-0.7-5.5-2.3-3.3-4.4 1.8-2.2 2.4-1.6 2.1-2.5 2.4-1.9 2.5-1.7 1.9-2.4 0.1-2.6-2.2-1.6-5.4-2-1.7-1.7 1-2.7-0.1-6.2-4.2-3.5-2.6 0.7-1.2-0.3-0.5-6.2-0.7-1.5-2.3-1-2.7-0.2-2.5 1.1 0.3 3-1.7 1.3-2.9-0.5-2.9 0.5-5.5 2.6-2.4-0.4-0.9-2.4-2-1.4-5.4 1.2-9 6.9-4 4.3-1.6 2.6-2 2.2-2.6 0.4-1.3-2.6-1.8-2.4-2.5-1.8-0.5-2.6 0.3-1.5 0.5-1 0.1-1 0-2.1 0.2-0.9 1.1-2.6 0.3-1.7 0.1-1-0.1-0.9-1.3-3.8-0.1-2 0.5-6.4 0.6-2 1.5-1.7 1.5-0.7 3.5-1.2 1.1-1 0.3-1 0-1 0.1-1 0.6-1 0.8-0.5 1.8-0.7 0.8-0.5 0.9-1.2 1.4-2.9 0.9-1.1 1.5-0.6 1.6 0.2 5 1.8 1.7 0.4 1.7 0 5-1.5 0.8-0.1 1.2 0.2 0.7-0.2 0.7-0.3 6.3-2.5 1.4-0.8 1.1-1 1-1.3 0.8-1.7 1.4-6.9 0.8-2.3 1.6-2 5.3-3.4 1.6-1.5 1.2-2.3 3.4 1.7 1.9 0.5 4 0.1 1.6 1.2 0.9 1.8-0.2 1.5-1.2 0.9-2.1 2.3 0.1 2.1 5.6 1.5 2.6 1.6 3.9 4.1 2.6 0.3 2.4-1.3 1.9-2-0.1-2.2-1.3-2 1.3-4.1 5.8 0 2.7 1 2.1-1.1 0.4-2.8 1.2-2.5 4.8-2.8 5.5 1.1 2.9 1.3 2.6 1.9 1.5 2.1 2.2 0.9 6.1-2.5 2.6-4 5.3-0.5 8.9-6.6 10.6-3.5 2.7 1.3-0.1 2.9-1.4 2.6-0.4 2.7 1.6 2.5 2.4 1.7 5.4 1.9 2.4 1.9 1.9 2.6 5.3 2 5.7 1.6 7.8 8.3 1.5 10.7-1.5 5.9 1.2 9.2-1.1 2.9-3.2 0.8-1.6 2.2 4.2 3.4 6 0.8 3.4 4 1.4 0.8 3.2 0.7 1.6-0.3-0.9 5-2.5 4.6 1 2 2.3 1.3 1.8 1.6 1.6 1.9-0.7 2.2-0.4 2.6-1.9 2.4-2.7 1.3-3.8 4.3-1.4 5.8 2 5.8-3 10.1 0 5.9-0.4 3 0.6 2.6-3.1 4.3 0 1.3-0.2 1.4-2.1 1.6 0 10.9 3 4.5 3.6 3.8 2.9 4.1-0.3 4.7-1.6 4.4-2.8 3.2-2 4.6-2.4 4.3-3.2 3.3-3 0.3-1.8-1.8-1-1.7-1.5-1.5-3.1-3.9-6.8-1.9-2.4-1-2.1 1.9-4.3 6.2-6 3.3-2-7.4-0.8-9-3-1.8-2.4-2 0-1.9-0.7-1.8-2.4-2.3-4.7 0.8-2.9 5.4-2.6 1.1-2.6-1.1-1.2 0-1.3-0.2-1.9-1.5-2.4 0.2-1.8-1-1.1-2-2.2 1-2.3 0.5-1.4-2.6-2.8-1-2.4 3.3-1.6 1.3-1.9-0.8-2.1-0.4-2.1 0-7.2 0.8z" id="NGKD" name="Kaduna">
  </path>
  <path d="M432.2 232.7l-5.2-4.5-1.1-3.9 0.5-3.8 1.2-3.7 2.4-2.8 3.5-0.9 4.3-2.2 3.3-0.8-0.2-3-1.9-4.8-0.7-1-0.3-1.2 0.4-1.4 0.1-1.5-0.3-2.5-1.6-5 0.4-16.2-0.7-7.5 0.9-3.5 5.8-4.1 13.3-5 2.8-2.6 2.5-7.5 1.8-3.3 3.5-1 3.7-0.1 3.8 6.9 0.6 1.3 0 1.2 0.3 1 1.3 0.8 0.9-1.5 1.3-3.8 2.3-3.4 3.8-2 4.5-0.9 4.5 0.7 4.9 1.3 1.8 0.8 0.3 2-0.1 3 0.7 2.7 1.8 1.4 2 1.1 1.9 1.3 1 2.1-0.1 2.7 0.6 2.3 4.2 1.5 4.8 0.5 3.2 4 0 7.1-0.3 1.4-0.8 1-0.7 1.2 1.1 1.7 0.7 0.6 0.8 0.3 1.8-0.7 3.1-0.5 0.6 0.3 0.5 1.9 0.1 2 4.7 0 2.7-1.9 3.5 0.4 0.8 2.3 1.2 4.6-0.2 2.6-0.9 2.5-0.4 1.8-0.6 1.8-2.8 4.1-1 4.7 1.2 1.1 3.3-0.3 2 0.3 0.9 0.6 1.7 4.4 1.1 1.7 2.1 2.2 1.7 1.1 1 0.3 1.7 1-0.7 1.8-6.7 6.1-1.2 2.1-0.7 2.3-0.1 1.1 0.1 2.1-0.2 1-5.7 2.3-1.4 0.3-1.3-0.6-1.2-0.8-5 2.3-7.8 8.2-3 4.4-2 2.2-2.7 1.3-4.5 0.3-2.3 4.8-0.5 5.8 0.2 6.5 2.2 5.9 3.4 4.1 0.6 5.3-2.2 5.1-3.4 3.8-1.6 0.3-3.2-0.7-1.4-0.8-3.4-4-6-0.8-4.2-3.4 1.6-2.2 3.2-0.8 1.1-2.9-1.2-9.2 1.5-5.9-1.5-10.7-7.8-8.3-5.7-1.6-5.3-2-1.9-2.6-2.4-1.9-5.4-1.9-2.4-1.7-1.6-2.5 0.4-2.7 1.4-2.6 0.1-2.9-2.7-1.3-10.6 3.5-8.9 6.6-5.3 0.5z" id="NGKN" name="Kano">
  </path>
  <path d="M360.9 459.7l-3.4-0.4-1.9-3.2-0.4-1.4-0.7-54.7 0.3-2.1 1.8-0.9 14-0.6 4.6 1.5 7.1 6.9 3.6 2 0.4-0.1 10.7-15.2 7.2-0.8 2.1 0 2.1 0.4 1.9 0.8 1.6-1.3 2.4-3.3 2.8 1 1.4 2.6 2.3-0.5 0.2 1.6-0.2 1.4-0.9 0.6-0.9 0.3-1.4 2.5-1.7 8.2-0.2 4.8 0.2 7.5-3.5 15.5-3.3 9.1-2.6 4.3-3.4 3.7-9.7 4.9-10.7 2.9-10.9 1.7-0.7 0-2.7 0.5-2.8-0.3-4.7 0.1z" id="NGFC" name="Federal Capital Territory">
  </path>
 </g>
 <g id="points">
  <circle class="4.752568550854937|3.271024698580586" cx="90.9" cy="738.5" id="0">
  </circle>
  <circle class="8.595819986532453|9.270451782319844" cx="545.5" cy="445.3" id="1">
  </circle>
  <circle class="13.399884281129347|14.069993449311253" cx="909.1" cy="74.4" id="2">
  </circle>
 </g>
 <g id="label_points">
  <circle class="Kebbi" cx="151.4" cy="220.1" id="NGKE">
  </circle>
  <circle class="Niger" cx="265.2" cy="349.4" id="NGNI">
  </circle>
  <circle class="Kwara" cx="209.5" cy="444.7" id="NGKW">
  </circle>
  <circle class="Ogun" cx="94.4" cy="565.6" id="NGOG">
  </circle>
  <circle class="Oyo" cx="111" cy="478.1" id="NGOY">
  </circle>
  <circle class="Lagos" cx="92.4" cy="601.9" id="NGLA">
  </circle>
  <circle class="Borno" cx="848.9" cy="184.8" id="NGBO">
  </circle>
  <circle class="Adamawa" cx="777.8" cy="379.7" id="NGAD">
  </circle>
  <circle class="Taraba" cx="647" cy="493.6" id="NGTA">
  </circle>
  <circle class="Benue" cx="508.1" cy="536.6" id="NGBE">
  </circle>
  <circle class="Cross River" cx="478.9" cy="675" id="NGCR">
  </circle>
  <circle class="Sokoto" cx="252.5" cy="91.8" id="NGSO">
  </circle>
  <circle class="Zamfara" cx="322.9" cy="171.6" id="NGZA">
  </circle>
  <circle class="Yobe" cx="716.6" cy="148.9" id="NGYO">
  </circle>
  <circle class="Katsina" cx="415.7" cy="131.8" id="NGKT">
  </circle>
  <circle class="Jigawa" cx="574.6" cy="158.3" id="NGJI">
  </circle>
  <circle class="Ondo" cx="208.5" cy="582.6" id="NGON">
  </circle>
  <circle class="Delta" cx="293.6" cy="685.3" id="NGDE">
  </circle>
  <circle class="Bayelsa" cx="300.6" cy="737.3" id="NGBY">
  </circle>
  <circle class="Rivers" cx="369" cy="722.5" id="NGRI">
  </circle>
  <circle class="Akwa Ibom" cx="434.8" cy="729.3" id="NGAK">
  </circle>
  <circle class="Abia" cx="411.6" cy="685.9" id="NGAB">
  </circle>
  <circle class="Ebonyi" cx="449.3" cy="623.3" id="NGEB">
  </circle>
  <circle class="Anambra" cx="370.6" cy="635" id="NGAN">
  </circle>
  <circle class="Edo" cx="311.9" cy="584.1" id="NGED">
  </circle>
  <circle class="Bauchi" cx="578.7" cy="306.7" id="NGBA">
  </circle>
  <circle class="Plateau" cx="571.8" cy="414.7" id="NGPL">
  </circle>
  <circle class="Nassarawa" cx="455.2" cy="452.4" id="NGNA">
  </circle>
  <circle class="Gombe" cx="694" cy="306.9" id="NGGO">
  </circle>
  <circle class="Enugu" cx="402.9" cy="604.5" id="NGEN">
  </circle>
  <circle class="Kogi" cx="327.8" cy="499.9" id="NGKO">
  </circle>
  <circle class="Osun" cx="187.5" cy="528.6" id="NGOS">
  </circle>
  <circle class="Imo" cx="377" cy="680.9" id="NGIM">
  </circle>
  <circle class="Ekiti" cx="245.6" cy="514" id="NGEK">
  </circle>
  <circle class="Kaduna" cx="433.4" cy="299.4" id="NGKD">
  </circle>
  <circle class="Kano" cx="489" cy="201.6" id="NGKN">
  </circle>
  <circle class="Federal Capital Territory" cx="383.6" cy="431.5" id="NGFC">
  </circle>
 </g>
</svg>